<?xml version="1.0" standalone="no"?>
<!DOCTYPE svg PUBLIC "-//W3C//DTD SVG 20010904//EN"
 "http://www.w3.org/TR/2001/REC-SVG-20010904/DTD/svg10.dtd">
<svg version="1.0" xmlns="http://www.w3.org/2000/svg"
 width="721.000000pt" height="1280.000000pt" viewBox="0 0 721.000000 1280.000000"
 preserveAspectRatio="xMidYMid meet">
<metadata>
Created by potrace 1.15, written by Peter Selinger 2001-2017
</metadata>
<g transform="translate(0.000000,1280.000000) scale(0.100000,-0.100000)"
fill="#000000" stroke="none">
<path d="M1225 12791 c-11 -5 -34 -10 -52 -10 -57 -2 -63 -8 -63 -71 0 -72 10
-98 53 -147 44 -49 56 -92 64 -228 5 -92 3 -116 -11 -143 -21 -40 -45 -46
-166 -39 l-97 5 -11 -94 c-11 -97 -35 -168 -30 -89 4 51 -17 54 -49 5 -68
-107 -130 -161 -301 -264 -130 -78 -324 -213 -444 -308 -101 -80 -106 -91
-115 -235 l-6 -102 31 -29 c17 -16 53 -35 79 -41 26 -7 72 -23 101 -37 100
-46 170 -29 245 60 67 77 94 90 176 82 197 -19 203 -19 310 9 114 30 132 31
303 20 136 -9 163 -4 326 62 102 41 153 50 137 23 -4 -6 -11 -8 -16 -4 -5 3
-30 -7 -54 -23 -40 -25 -45 -32 -45 -63 1 -19 8 -53 16 -75 9 -22 20 -65 24
-95 5 -30 16 -74 24 -98 9 -24 20 -82 26 -130 18 -144 24 -150 56 -47 l19 60
3 -47 c4 -56 13 -60 33 -15 13 30 17 32 79 37 64 5 65 6 83 43 9 20 22 37 27
37 6 0 51 -21 100 -47 81 -42 92 -45 116 -34 34 15 41 8 20 -21 -9 -13 -23
-34 -33 -47 -27 -37 -21 -110 16 -185 17 -36 31 -72 31 -81 0 -26 36 -88 70
-120 17 -16 38 -42 46 -58 13 -24 13 -28 -2 -34 -9 -3 -31 2 -50 11 -48 23
-62 20 -66 -11 -4 -40 -37 -33 -117 26 -86 63 -102 71 -145 71 -45 0 -107 50
-99 80 7 26 -4 82 -20 105 -13 17 -17 16 -73 -20 -80 -51 -155 -115 -148 -126
3 -5 9 -7 14 -4 16 10 72 -89 138 -248 l12 -29 46 26 c26 14 57 26 69 26 37 0
88 -43 118 -98 18 -33 43 -62 68 -78 21 -13 39 -31 39 -38 0 -21 78 -116 95
-116 8 0 15 4 15 10 0 12 53 40 76 40 13 0 15 -6 9 -27 -14 -51 -11 -66 13
-72 35 -9 27 -26 -13 -29 -36 -3 -68 -34 -59 -57 4 -9 -10 -15 -46 -20 l-52
-7 -63 68 c-64 70 -74 86 -94 160 -6 22 -20 49 -31 59 -20 18 -20 18 -20 -22
0 -24 -6 -46 -15 -53 -23 -19 -64 -4 -71 27 l-7 26 -25 -28 c-21 -25 -24 -36
-19 -76 6 -45 4 -47 -31 -70 -45 -30 -57 -68 -36 -118 l15 -36 18 24 c16 21
19 22 25 6 5 -14 13 -16 38 -11 29 6 36 2 64 -31 29 -35 35 -37 86 -37 38 0
64 6 90 22 42 26 47 22 71 -53 51 -159 52 -210 4 -203 -19 3 -23 11 -29 63 -4
33 -16 82 -28 109 l-22 49 -15 -33 c-18 -43 -22 -47 -32 -31 -18 28 -82 -100
-95 -189 -9 -63 4 -101 45 -128 33 -23 86 -27 139 -11 20 5 25 -43 10 -93 -8
-27 -16 -38 -30 -38 -11 0 -20 3 -20 8 -1 26 -17 32 -49 16 -37 -19 -89 -14
-127 11 -62 41 -130 187 -105 227 6 10 11 27 11 37 0 11 11 31 25 45 20 20 25
35 25 73 0 57 -9 76 -30 63 -8 -5 -24 -7 -36 -4 -15 4 -29 -2 -43 -17 l-20
-22 -46 42 c-25 23 -59 47 -76 53 -31 11 -44 38 -37 79 4 22 5 21 20 -11 18
-39 24 -27 7 17 -12 31 -26 43 -53 43 -14 0 -17 -5 -12 -24 4 -16 -1 -37 -13
-58 -10 -18 -36 -82 -57 -143 -20 -60 -57 -157 -81 -214 -23 -57 -43 -109 -43
-115 0 -6 -16 -35 -35 -63 -19 -29 -44 -75 -55 -102 -48 -122 -225 -456 -255
-481 -25 -21 -19 -43 10 -36 14 4 25 3 25 -2 0 -15 -24 -32 -47 -32 -21 0 -23
-3 -17 -38 4 -29 2 -41 -11 -52 -16 -14 -17 -13 -11 8 5 14 3 22 -4 22 -15 0
-73 -127 -100 -220 -12 -41 -33 -96 -46 -122 -47 -89 -134 -370 -134 -430 0
-15 -6 -47 -14 -70 -11 -31 -17 -131 -24 -353 -7 -251 -12 -317 -25 -348 l-17
-39 29 7 c24 5 29 2 35 -17 3 -13 6 -33 6 -46 0 -13 15 -69 34 -125 19 -56 38
-117 41 -136 5 -21 14 -35 26 -38 16 -5 19 -15 19 -63 0 -68 15 -88 52 -69 37
19 58 41 58 61 0 17 1 18 25 2 27 -18 55 -13 55 10 0 13 -43 56 -76 74 -9 5
-17 19 -19 33 -1 13 -14 49 -29 80 -16 34 -30 90 -37 139 -5 46 -17 99 -25
118 -17 40 -19 99 -3 104 6 2 1 16 -12 32 -14 18 -23 44 -24 67 0 21 -4 41 -8
45 -4 4 -7 57 -7 119 0 82 -4 116 -15 131 -15 20 -20 54 -7 54 4 0 20 -25 36
-55 55 -105 145 -185 210 -185 19 0 27 7 35 33 27 89 24 277 -5 277 -8 0 -14
-7 -14 -15 0 -19 -19 -19 -43 0 -10 7 -60 21 -111 30 -51 9 -98 20 -105 24
-10 6 -9 19 3 57 8 27 20 96 25 154 13 128 25 172 56 207 l24 28 1 -57 c0 -38
5 -60 14 -65 8 -4 32 -31 54 -60 44 -55 91 -79 136 -67 34 8 66 49 66 84 0 55
-103 164 -194 204 -29 13 -57 29 -61 36 -4 7 3 26 16 43 57 77 90 132 106 178
11 31 22 48 30 44 8 -3 13 4 13 20 0 55 74 200 147 287 20 24 45 62 56 86 12
23 24 42 28 42 19 0 39 -35 39 -66 0 -57 41 -113 82 -114 10 0 32 -13 50 -29
45 -40 30 -52 -45 -38 -36 7 -61 7 -67 1 -6 -6 1 -33 20 -73 17 -35 33 -82 36
-104 11 -69 63 -107 150 -107 64 0 64 -2 74 -261 5 -129 13 -247 19 -261 11
-30 26 -34 144 -44 48 -4 87 -9 87 -12 0 -2 -25 -32 -56 -65 -59 -64 -83 -108
-85 -154 -1 -28 -1 -28 -10 5 -6 21 -16 32 -28 32 -14 0 -18 5 -14 21 3 11 0
31 -7 44 -7 13 -11 39 -8 59 4 37 -5 48 -16 20 -5 -13 -9 -14 -21 -4 -9 8 -29
10 -53 7 -56 -9 -187 29 -187 55 0 8 16 15 40 18 36 5 40 8 43 36 2 19 17 45
38 67 57 62 41 142 -36 182 -46 24 -88 19 -127 -15 -21 -19 -45 -30 -63 -30
-26 0 -30 -4 -30 -27 0 -32 36 -114 74 -170 14 -21 26 -43 26 -48 0 -6 -17
-21 -38 -32 -49 -28 -79 -62 -84 -93 -3 -23 -7 -25 -50 -22 -26 2 -49 -2 -53
-8 -17 -28 96 -201 170 -260 83 -66 170 -60 241 16 48 51 90 61 80 19 -6 -22
-3 -25 18 -25 32 0 37 -18 16 -58 -22 -40 -12 -100 19 -121 12 -7 21 -21 21
-31 0 -10 10 -39 21 -65 18 -40 21 -62 17 -127 -3 -43 -8 -81 -12 -86 -14 -14
-57 47 -50 73 4 18 -2 30 -25 50 -16 15 -31 37 -33 49 -2 14 -14 25 -38 32
-34 11 -43 21 -54 57 -9 30 -61 22 -100 -18 -83 -83 -51 -278 56 -337 24 -13
44 -32 46 -43 3 -19 2 -19 -11 -2 -8 9 -16 17 -18 17 -2 0 -4 -30 -4 -68 -1
-41 -7 -82 -18 -106 -19 -42 -31 -40 -42 6 -6 23 -4 26 14 21 24 -6 25 -4 11
31 -10 28 -2 34 19 14 11 -11 12 -6 6 27 -9 54 -22 74 -52 86 -33 12 -35 10
-23 -32 19 -67 11 -76 -20 -21 -32 54 -42 64 -39 35 3 -35 -2 -43 -42 -70 -27
-18 -42 -36 -46 -56 -5 -26 -8 -28 -18 -13 -18 24 -25 20 -25 -17 0 -40 -8
-51 -27 -36 -13 11 -20 -1 -47 -76 -6 -16 -9 -17 -16 -5 -7 11 -13 6 -25 -22
-20 -50 -19 -84 5 -106 17 -16 18 -21 7 -31 -11 -9 -17 -8 -27 4 -12 14 -15
14 -30 0 -14 -13 -17 -28 -12 -80 4 -51 1 -70 -13 -91 -21 -33 -16 -106 17
-225 21 -79 44 -113 27 -41 -13 58 -11 72 11 72 23 0 26 10 8 28 -12 12 -28
172 -18 172 3 0 11 -26 18 -58 7 -32 19 -67 27 -78 13 -18 14 -16 15 21 1 22
7 54 14 70 12 29 13 29 20 8 9 -27 26 -30 26 -5 0 9 -9 68 -20 131 -11 62 -20
118 -20 123 0 20 20 -4 21 -25 0 -19 2 -19 11 6 12 33 28 35 29 5 0 -16 8 -7
25 30 13 29 29 50 34 47 15 -9 12 -42 -5 -49 -8 -3 -15 -13 -15 -23 0 -10 -14
-36 -30 -57 -17 -22 -30 -49 -30 -60 1 -19 2 -19 16 4 14 25 15 25 13 -15 -3
-71 1 -93 19 -111 13 -14 18 -42 23 -128 4 -68 13 -130 24 -161 17 -46 117
-175 135 -175 5 0 11 13 15 29 4 19 18 37 40 50 41 24 50 52 42 135 -7 78 -38
161 -82 223 -44 62 -84 137 -101 188 l-13 40 2 -53 c2 -55 -8 -70 -19 -26 -8
30 0 121 11 132 4 4 14 -3 22 -15 9 -13 24 -23 35 -23 10 0 22 -9 26 -21 11
-28 29 -6 34 41 3 37 -1 39 -49 25 -17 -6 -25 -1 -37 24 -9 17 -24 31 -33 31
-14 0 -15 11 -10 88 6 72 22 161 26 142 1 -3 6 -46 10 -97 11 -104 27 -148 56
-148 15 0 21 8 25 35 l5 35 19 -42 c10 -22 38 -60 62 -84 l44 -44 -6 35 c-3
19 -7 41 -10 48 -6 19 10 14 24 -8 22 -35 31 -22 16 23 -22 63 -40 83 -59 67
-20 -16 -19 -5 2 31 14 24 15 34 6 59 -12 33 -7 37 22 16 15 -11 20 -27 20
-69 0 -40 5 -61 19 -76 22 -25 36 -27 36 -6 0 20 8 19 49 -6 42 -25 49 -18 28
26 -22 46 -22 48 8 29 23 -15 25 -15 25 1 0 9 -9 28 -20 42 -19 24 -27 53 -15
53 3 0 16 -12 29 -27 15 -18 28 -24 40 -20 23 9 13 45 -21 73 -29 25 -28 59 2
59 15 0 19 -6 17 -23 -3 -18 1 -22 15 -20 16 3 18 -4 15 -68 -4 -75 8 -101 29
-63 7 14 9 40 5 70 -9 67 5 64 95 -17 82 -74 147 -109 185 -100 22 6 24 11 24
66 0 33 4 60 8 60 5 0 16 -17 25 -38 22 -49 122 -170 152 -184 18 -8 36 -8 69
2 25 7 51 10 59 7 7 -3 24 -34 36 -69 27 -73 68 -148 81 -148 6 0 -1 30 -15
66 -29 78 -32 104 -5 53 30 -56 45 -65 74 -41 21 16 36 18 98 14 99 -6 120 10
126 96 3 40 -1 77 -12 108 -19 57 -14 69 10 22 9 -18 25 -44 35 -58 11 -17 19
-53 23 -110 5 -73 9 -88 28 -102 44 -34 47 -38 42 -51 -7 -19 13 -33 62 -46
23 -6 48 -18 55 -27 15 -19 73 -13 120 12 37 19 37 42 0 119 -35 74 -89 144
-197 256 -46 48 -84 93 -84 101 0 9 7 21 16 29 8 7 13 21 11 30 -3 10 1 20 9
23 10 4 14 23 14 63 0 45 5 62 22 80 l22 24 -44 38 c-61 53 -47 60 19 11 29
-22 57 -40 62 -40 5 0 9 -20 9 -43 0 -50 30 -145 58 -185 11 -15 40 -68 66
-119 25 -51 54 -97 64 -102 11 -6 29 -34 42 -63 13 -31 42 -73 70 -100 48 -46
90 -113 90 -143 0 -12 -12 -9 -60 15 -33 16 -71 30 -86 30 -24 0 -26 -2 -20
-33 4 -21 1 -40 -9 -54 -14 -20 -13 -26 22 -83 50 -82 119 -157 165 -181 47
-24 50 -24 82 6 39 36 36 94 -9 181 -19 37 -35 69 -35 71 0 2 9 -1 19 -7 62
-33 171 19 171 81 0 42 -39 134 -75 177 -18 21 -40 54 -48 73 -18 44 -71 106
-108 124 -16 9 -32 29 -38 48 -6 19 -25 47 -41 62 -17 16 -30 35 -30 42 0 20
34 15 48 -7 9 -14 23 -20 50 -20 26 0 41 -6 49 -19 7 -11 43 -38 81 -60 38
-22 74 -47 82 -55 7 -9 23 -16 36 -16 18 0 24 -6 24 -21 0 -18 4 -21 29 -16
25 5 28 3 24 -16 -3 -16 4 -29 26 -45 36 -26 63 -74 55 -96 -7 -18 -20 -21
-29 -6 -12 19 -25 10 -25 -18 0 -109 167 -372 228 -360 25 5 60 64 68 115 6
40 9 44 30 40 30 -5 32 15 4 61 -24 38 -47 41 -56 7 -7 -30 -15 -31 -37 -7
-22 24 -21 32 2 32 11 0 22 4 25 9 10 15 -51 98 -149 199 -103 108 -174 162
-212 162 -17 0 -23 6 -23 20 0 21 -41 70 -59 70 -5 0 -11 -8 -13 -17 -3 -14
-7 -11 -18 12 -18 36 -77 77 -101 70 -10 -4 -35 6 -61 24 -23 16 -76 48 -117
71 -40 23 -82 51 -92 61 -12 12 -30 19 -46 17 -21 -2 -30 3 -41 25 -17 35 -76
79 -163 121 -36 18 -112 69 -170 113 -139 107 -153 113 -277 124 -65 6 -109
14 -116 23 -6 7 -25 18 -41 25 -35 13 -80 76 -126 175 -29 62 -33 83 -42 214
-7 101 -7 193 1 301 12 170 34 262 127 532 26 73 53 163 61 199 8 36 44 154
80 263 65 196 108 363 98 379 -3 5 11 56 31 113 23 68 42 147 51 223 9 64 24
144 34 177 34 108 44 300 44 890 1 538 -4 655 -25 655 -6 0 -7 -15 -4 -37 5
-30 4 -34 -5 -21 -6 10 -15 56 -21 104 -5 47 -16 102 -25 122 -9 20 -23 60
-31 87 -17 57 -85 187 -149 288 -24 37 -44 72 -44 77 0 5 -30 34 -66 64 -56
46 -90 67 -174 106 -47 22 13 101 91 120 58 14 87 46 115 126 22 62 16 79 -30
87 -67 11 -286 -20 -424 -60 -30 -8 -56 -12 -59 -9 -3 3 7 20 22 38 64 75 106
210 71 224 -31 12 -192 -96 -224 -151 -24 -40 -50 -45 -77 -15 -15 16 -17 30
-11 82 8 83 52 243 76 283 13 20 20 50 20 79 0 55 -6 59 -124 75 -91 13 -119
5 -135 -40 -16 -46 -14 -79 9 -122 23 -43 27 -157 9 -297 -11 -93 -23 -116
-43 -87 -7 9 -18 17 -25 17 -23 0 -35 57 -35 180 -1 114 2 132 28 202 31 85
28 120 -16 147 -26 16 -117 24 -143 12z m330 -550 c3 -11 3 -31 0 -44 -4 -14
-2 -35 5 -46 9 -17 20 -21 65 -21 78 0 105 -13 105 -49 0 -64 -48 -125 -82
-105 -10 6 -11 4 0 -7 17 -18 15 -49 -4 -71 -16 -16 -15 -18 2 -24 48 -17 72
-68 39 -80 -10 -4 -15 -20 -15 -50 0 -34 -5 -46 -21 -54 -30 -16 -38 -2 -11
19 21 15 22 19 8 30 -26 22 -56 -3 -56 -48 0 -25 -5 -41 -14 -44 -8 -3 -16
-21 -18 -39 -2 -23 -8 -33 -19 -32 -14 1 -13 -4 5 -37 24 -43 14 -66 -14 -31
-23 28 -30 28 -30 -3 0 -18 -7 -28 -25 -35 -14 -5 -30 -22 -35 -36 -13 -34 -4
-44 15 -18 12 15 14 16 15 3 0 -21 -51 -68 -57 -51 -8 23 -22 12 -25 -20 -4
-35 -10 -27 -24 27 l-7 30 -8 -35 c-4 -18 -16 -40 -26 -47 -16 -12 -20 -11
-34 6 -14 17 -18 18 -23 6 -7 -19 -26 -20 -26 -1 0 8 -10 14 -22 13 -13 0 -35
3 -50 7 -22 7 -29 4 -34 -10 -8 -23 -44 -64 -56 -64 -4 0 -8 8 -8 18 0 10 -7
27 -15 38 -14 19 -14 18 -15 -3 0 -29 -8 -29 -50 2 -19 14 -39 25 -46 25 -6 0
-14 7 -18 15 -3 8 -15 15 -26 15 -11 0 -29 5 -39 12 -15 9 -26 9 -45 0 -20 -9
-25 -19 -28 -53 -3 -47 -22 -63 -33 -28 -7 22 -8 22 -21 -7 -12 -28 -13 -28
-19 -6 -15 48 -65 15 -65 -42 0 -27 -14 -34 -26 -15 -5 8 -10 6 -16 -5 -13
-24 -64 -20 -82 5 -15 22 -15 22 -21 -7 -26 -118 -88 -225 -146 -248 -49 -20
-63 -20 -105 0 -44 21 -43 39 5 63 57 29 101 70 94 86 -9 26 -39 16 -114 -38
-92 -66 -102 -70 -144 -53 -37 16 -55 42 -55 79 0 31 15 43 61 52 76 14 137
72 125 120 -10 41 -44 32 -97 -26 -51 -56 -75 -58 -65 -6 9 43 67 110 144 164
37 25 74 54 82 63 8 10 26 20 40 23 14 4 45 23 68 43 24 20 78 55 120 79 42
23 102 56 132 73 59 34 83 40 78 19 -2 -7 0 -14 5 -15 24 -7 40 2 50 28 8 22
18 30 35 30 19 0 22 4 17 21 -4 12 -1 27 8 37 8 9 17 26 19 37 5 32 31 23 53
-17 11 -21 24 -36 30 -35 5 2 20 25 34 50 l24 47 -17 78 c-20 93 -12 132 28
132 48 0 121 -84 114 -133 -1 -12 1 -28 5 -34 11 -18 62 -16 81 2 8 8 21 12
29 9 21 -8 87 53 87 80 0 15 -12 26 -40 39 -50 23 -52 38 -4 30 19 -3 45 -1
57 5 12 6 46 13 75 15 60 5 88 25 98 71 11 51 27 63 39 27z m669 -43 c-7 -11
31 -7 69 7 25 10 22 -16 -8 -75 -33 -66 -50 -74 -127 -60 -110 20 -214 -8
-334 -91 -25 -17 -47 -29 -50 -27 -6 7 17 122 27 133 6 5 9 3 9 -8 0 -18 25
-23 35 -7 3 6 17 10 29 10 13 0 29 7 36 15 16 20 108 53 170 61 30 4 68 18 93
35 39 26 65 30 51 7z m-190 -194 c22 -9 20 -34 -3 -34 -10 0 -35 -7 -55 -15
-44 -19 -47 -6 -5 29 32 28 38 29 63 20z m-4 -93 c0 -13 -38 -21 -104 -21 -73
0 -69 7 10 19 82 12 94 12 94 2z m-10 -85 c0 -2 -16 -13 -35 -25 -31 -18 -35
-25 -35 -60 0 -31 5 -43 21 -52 17 -9 20 -17 14 -46 -6 -32 -5 -34 15 -28 36
12 70 -3 82 -35 8 -25 15 -30 43 -30 34 0 34 0 19 -27 -7 -16 -14 -34 -14 -41
0 -14 -5 -14 -198 4 -73 6 -74 6 -66 33 25 92 33 231 14 231 -26 0 -4 23 48
49 50 27 92 39 92 27z m196 -282 c-4 -11 -15 -30 -26 -44 -18 -23 -19 -24 -26
-6 -5 14 -1 24 14 34 12 8 22 24 22 35 0 15 3 18 11 10 6 -6 8 -19 5 -29z
m-376 -184 c0 -110 39 -162 94 -127 23 15 23 15 22 -16 -1 -43 18 -46 24 -5 6
33 6 33 20 11 18 -28 35 -29 78 -3 18 11 38 20 45 20 7 0 30 -36 52 -80 21
-43 42 -77 46 -75 4 3 10 22 14 42 l7 38 18 -35 c23 -46 54 -73 77 -68 25 5
21 70 -7 136 -25 58 -23 91 3 52 35 -54 50 -270 22 -324 -8 -15 -15 -50 -15
-77 0 -38 5 -51 21 -63 14 -9 19 -21 15 -31 -9 -25 -27 -14 -66 42 -19 28 -54
75 -77 105 -24 30 -43 59 -43 65 0 6 -7 16 -16 24 -9 8 -13 21 -10 35 5 20 2
23 -24 22 -17 -1 -36 4 -42 10 -16 16 -38 15 -38 -2 0 -9 -7 -12 -20 -9 -14 4
-20 0 -20 -11 0 -12 -10 -16 -48 -16 -37 0 -59 7 -102 35 -30 19 -66 35 -80
35 -32 0 -50 17 -50 47 0 13 -4 23 -10 23 -14 0 -13 147 1 156 6 3 26 30 45
60 49 76 64 72 64 -16z m-313 -77 c-3 -10 -5 -4 -5 12 0 17 2 24 5 18 2 -7 2
-21 0 -30z m806 -168 c4 -8 2 -17 -3 -20 -6 -4 -10 3 -10 14 0 25 6 27 13 6z
m232 -263 c-7 -7 -45 29 -45 41 0 6 11 0 25 -13 14 -13 23 -26 20 -28z m5
-134 c0 -18 -17 -7 -29 19 -13 28 -13 28 8 9 12 -11 21 -23 21 -28z m29 -208
c36 -78 37 -120 2 -51 -31 59 -52 121 -42 121 4 0 23 -32 40 -70z m-189 46 c0
-16 -18 -31 -27 -22 -8 8 5 36 17 36 5 0 10 -6 10 -14z m170 -112 c0 -8 -2
-14 -5 -14 -6 0 -35 56 -35 67 1 14 40 -39 40 -53z m-33 -70 c-12 -13 -37 6
-37 28 l0 22 22 -21 c12 -13 19 -25 15 -29z m67 -150 c3 -9 6 -25 6 -37 -1
-17 -2 -19 -9 -7 -16 27 -22 60 -13 60 6 0 13 -7 16 -16z m3 -199 c5 -30 6
-55 2 -55 -9 0 -15 19 -25 73 -3 21 -2 37 3 37 5 0 14 -25 20 -55z m-18 -102
c6 -20 8 -39 6 -41 -5 -6 -35 61 -35 78 0 23 20 -2 29 -37z m-29 -68 c0 -14
-4 -25 -10 -25 -5 0 -10 11 -10 25 0 14 5 25 10 25 6 0 10 -11 10 -25z m17
-202 c-2 -21 -4 -6 -4 32 0 39 2 55 4 38 2 -18 2 -50 0 -70z m-37 -23 c0 -16
-4 -32 -10 -35 -6 -4 -10 10 -10 35 0 25 4 39 10 35 6 -3 10 -19 10 -35z
m-740 17 c0 -14 -20 -37 -32 -37 -12 0 -10 24 4 38 16 16 28 15 28 -1z m524
-13 c17 -6 22 -24 8 -24 -5 0 -17 7 -28 15 -19 15 -8 20 20 9z m163 -81 c-3
-10 -5 -4 -5 12 0 17 2 24 5 18 2 -7 2 -21 0 -30z m-20 -165 c-3 -7 -5 -2 -5
12 0 14 2 19 5 13 2 -7 2 -19 0 -25z m91 -21 c3 -40 -12 -51 -22 -14 -10 36
-7 59 7 55 6 -3 13 -21 15 -41z m-71 -134 c-3 -10 -5 -2 -5 17 0 19 2 27 5 18
2 -10 2 -26 0 -35z m-892 3 c14 -21 15 -29 3 -65 -11 -31 -12 -58 -5 -116 6
-49 6 -89 -1 -115 -12 -49 2 -121 29 -146 23 -21 47 -12 104 37 35 31 38 32
64 18 32 -18 39 -64 16 -108 -25 -50 -54 -63 -137 -60 -66 2 -73 0 -70 -17 6
-28 71 -155 101 -194 14 -19 33 -48 41 -65 13 -27 21 -30 68 -33 28 -2 52 -7
52 -13 0 -5 4 -9 10 -9 14 0 30 68 23 101 -3 18 2 44 16 72 29 60 37 134 21
207 -7 33 -10 63 -6 67 10 10 15 -1 25 -51 6 -32 19 -58 41 -81 44 -45 52
-114 21 -178 -12 -26 -21 -63 -21 -92 0 -30 -9 -66 -22 -94 l-23 -46 -7 49
c-12 83 -25 74 -32 -21 -9 -113 -21 -164 -41 -179 -13 -9 -15 -21 -9 -51 l7
-38 -44 38 c-49 42 -133 87 -165 87 -54 0 -68 39 -80 218 l-7 113 -37 24 c-38
24 -50 47 -65 122 -8 39 -56 93 -82 93 -11 0 -41 -7 -67 -16 -62 -21 -75 -10
-50 43 11 21 31 44 45 52 25 14 28 13 58 -16 36 -37 136 -87 157 -79 31 12 39
54 21 109 -9 29 -19 70 -22 92 -9 59 -42 120 -71 134 -19 8 -24 16 -18 29 4 9
9 32 12 50 5 38 16 41 33 10 8 -15 14 -18 17 -10 2 7 -8 28 -23 47 -19 25 -22
35 -11 35 7 0 23 16 35 35 26 44 71 49 96 11z m645 -117 c0 -11 -4 -17 -10
-14 -5 3 -10 13 -10 21 0 8 5 14 10 14 6 0 10 -9 10 -21z m187 -56 c-3 -10 -5
-4 -5 12 0 17 2 24 5 18 2 -7 2 -21 0 -30z m-150 -80 c-3 -10 -5 -4 -5 12 0
17 2 24 5 18 2 -7 2 -21 0 -30z m20 -160 c-2 -16 -4 -5 -4 22 0 28 2 40 4 28
2 -13 2 -35 0 -50z m53 41 c0 -8 -4 -14 -10 -14 -5 0 -10 9 -10 21 0 11 5 17
10 14 6 -3 10 -13 10 -21z m0 -106 c0 -9 -4 -20 -10 -23 -6 -4 -10 9 -10 32 0
28 3 34 10 23 5 -8 10 -23 10 -32z m-259 -175 c-8 -15 -10 -10 -11 23 0 22 3
44 8 48 11 12 14 -52 3 -71z m166 -85 c-3 -7 -5 -2 -5 12 0 14 2 19 5 13 2 -7
2 -19 0 -25z m-40 -105 c-2 -16 -4 -3 -4 27 0 30 2 43 4 28 2 -16 2 -40 0 -55z
m-43 -29 c9 -24 7 -62 -4 -69 -6 -3 -10 4 -10 17 0 13 -3 33 -6 46 -7 25 11
31 20 6z m-87 -116 c-3 -7 -5 -2 -5 12 0 14 2 19 5 13 2 -7 2 -19 0 -25z
m-143 -101 c-3 -9 -10 -17 -14 -17 -12 0 -23 38 -14 51 10 17 36 -14 28 -34z
m-554 -437 c-11 -20 -30 -28 -30 -11 0 5 8 26 17 47 17 38 17 38 21 12 2 -15
-2 -36 -8 -48z m408 -443 c4 -29 -12 -37 -22 -11 -10 26 -7 46 7 42 6 -3 13
-17 15 -31z m-159 -171 c22 -71 39 -198 22 -161 -8 17 -42 150 -58 225 -11 51
15 5 36 -64z m572 -129 c15 -29 17 -42 9 -57 -17 -32 -48 -43 -81 -29 -36 14
-42 10 -33 -26 4 -16 18 -32 34 -39 l27 -11 -34 -22 -33 -22 0 30 c0 16 -7 46
-15 66 -8 19 -15 42 -15 49 0 20 48 29 76 13 22 -11 27 -11 34 1 14 22 12 33
-15 84 -14 26 -25 50 -25 54 1 12 50 -51 71 -91z m117 -88 c-24 -13 -23 -33 4
-80 21 -38 20 -58 -2 -44 -6 4 -22 24 -36 46 -14 23 -32 39 -44 39 -10 0 -22
5 -26 12 -12 19 27 38 75 38 36 -1 42 -3 29 -11z m92 -14 c0 -27 23 -34 37
-12 11 19 43 25 89 18 l39 -6 -48 -28 c-41 -25 -63 -57 -38 -57 10 0 24 -31
17 -38 -3 -2 -17 3 -31 12 -26 17 -26 17 -15 -4 6 -11 24 -23 39 -26 18 -4 33
-16 40 -31 17 -36 7 -40 -38 -15 -21 12 -50 22 -63 22 -59 0 -109 112 -78 171
16 29 50 25 50 -6z m196 -35 c14 -6 35 -22 46 -35 11 -14 27 -25 36 -25 32 -1
84 -62 63 -74 -5 -3 -11 3 -14 13 -3 12 -14 19 -31 19 -15 0 -35 7 -45 16 -9
9 -27 16 -39 16 -19 0 -21 4 -16 25 9 35 -18 33 -45 -2 -17 -24 -22 -26 -31
-13 -15 22 -12 40 5 34 9 -4 15 0 15 9 0 8 6 18 13 20 6 3 13 6 14 6 1 1 14
-4 29 -9z m-879 -117 c8 -19 12 -37 9 -40 -6 -6 -32 35 -41 66 -11 36 14 16
32 -26z m53 23 c0 -16 -18 -31 -27 -22 -8 8 5 36 17 36 5 0 10 -6 10 -14z
m410 -78 c14 -2 26 -10 27 -18 13 -104 55 -163 129 -181 24 -6 48 -17 54 -24
13 -16 49 -179 50 -225 0 -19 11 -59 25 -88 14 -30 25 -56 25 -59 0 -13 -23
14 -41 48 -17 33 -23 38 -35 29 -12 -11 -14 -7 -14 24 0 24 -9 49 -24 69 -13
18 -37 61 -53 97 -28 62 -55 95 -136 168 -21 18 -37 41 -37 52 0 11 -4 20 -9
20 -17 0 -61 -50 -61 -70 0 -11 -7 -23 -15 -26 -21 -9 -45 14 -45 42 0 18 -9
27 -35 38 -37 16 -49 32 -15 21 14 -5 20 -2 20 9 0 22 13 20 27 -4 7 -10 22
-24 34 -31 20 -10 21 -9 17 15 -5 23 -2 26 23 26 24 0 29 4 29 25 0 13 -9 39
-20 57 -29 48 -25 53 18 19 20 -16 48 -31 62 -33z m416 26 c-11 -7 -22 -11
-25 -8 -3 3 3 12 13 20 11 7 22 11 25 8 3 -3 -3 -12 -13 -20z m199 -13 c-7
-23 -25 -29 -25 -8 0 14 21 39 28 33 2 -3 1 -14 -3 -25z m-105 -6 c0 -9 7 -15
16 -13 18 3 42 -27 31 -38 -4 -4 -21 5 -37 21 -31 29 -38 45 -20 45 6 0 10 -7
10 -15z m-167 -37 c26 -35 17 -45 -20 -22 l-28 17 26 -27 c26 -27 27 -28 53
-11 25 17 26 17 26 -3 0 -17 7 -21 38 -24 29 -2 38 -8 40 -25 2 -12 15 -34 29
-49 24 -26 25 -33 21 -101 -6 -85 -21 -112 -39 -67 -6 16 -14 36 -18 44 -4 8
-35 24 -70 36 -113 39 -111 36 -111 99 0 31 -7 72 -15 92 -9 20 -13 45 -9 55
8 28 52 19 77 -14z m-804 -21 c13 -24 22 -49 20 -56 -4 -11 -59 76 -59 93 0
18 18 1 39 -37z m-99 -37 c8 -15 8 -20 -2 -20 -6 0 -22 -10 -35 -22 -32 -30
-39 -16 -13 26 25 41 35 44 50 16z m1090 1 c12 -23 14 -99 2 -85 -8 8 -32 83
-32 98 0 14 20 5 30 -13z m-1020 -30 c-1 -13 -3 -13 -15 3 -19 26 -19 42 0 26
8 -7 15 -20 15 -29z m-149 -114 c-8 -8 -11 -3 -11 19 1 25 2 27 11 11 8 -14 8
-22 0 -30z m223 27 c11 -27 7 -37 -9 -24 -16 14 -20 40 -6 40 5 0 12 -7 15
-16z m-436 -126 c7 -7 12 -16 12 -20 0 -13 -37 -9 -49 5 -20 24 14 38 37 15z
m76 -102 c3 -13 9 -31 12 -40 3 -9 2 -16 -4 -16 -9 0 -32 51 -32 71 0 19 18 7
24 -15z m-263 -33 c-9 -15 -10 -12 -10 17 0 29 1 32 10 18 7 -12 7 -24 0 -35z
m2177 -180 c-2 -10 -10 -18 -18 -18 -8 0 -16 8 -18 18 -2 12 3 17 18 17 15 0
20 -5 18 -17z m-2261 -40 c-3 -10 -5 -2 -5 17 0 19 2 27 5 18 2 -10 2 -26 0
-35z"/>
<path d="M1450 11910 c0 -11 5 -20 10 -20 6 0 10 9 10 20 0 11 -4 20 -10 20
-5 0 -10 -9 -10 -20z"/>
<path d="M1028 11878 c-6 -13 -11 -46 -11 -75 1 -37 -3 -56 -16 -67 -21 -19
-105 -56 -195 -86 -69 -23 -112 -53 -101 -70 12 -19 95 -10 202 21 81 23 131
31 199 33 72 1 96 5 118 21 68 48 83 54 145 61 111 11 141 38 141 125 0 50
-15 48 -53 -9 -21 -30 -41 -46 -80 -60 -28 -11 -57 -17 -65 -15 -7 3 -24 25
-38 49 -34 59 -78 94 -116 94 -24 0 -40 -10 -69 -41 l-38 -42 9 33 c15 51 -8
70 -32 28z m181 -66 c7 -13 6 -23 -1 -30 -26 -26 -54 -7 -43 28 8 25 31 26 44
2z m1 -121 c0 -11 -25 -21 -51 -21 -24 0 -25 17 -1 23 30 8 52 7 52 -2z"/>
<path d="M1540 11875 c0 -40 10 -75 21 -75 11 0 0 81 -12 95 -5 5 -9 -3 -9
-20z"/>
<path d="M1592 11844 c1 -9 9 -19 16 -22 9 -3 13 2 10 14 -1 9 -9 19 -16 22
-9 3 -13 -2 -10 -14z"/>
<path d="M1506 11641 c-7 -10 18 -34 27 -25 7 8 -3 34 -13 34 -5 0 -11 -4 -14
-9z"/>
<path d="M1387 11578 c-9 -5 -17 -18 -17 -28 0 -25 -9 -25 -26 -3 -11 17 -13
16 -19 -8 -5 -20 -11 -25 -25 -22 -10 3 -59 -13 -108 -36 -49 -23 -92 -41 -95
-41 -4 0 -7 9 -7 20 0 12 -5 17 -13 14 -7 -2 -33 4 -58 15 -48 23 -109 28
-109 10 0 -21 69 -80 111 -94 81 -29 160 -13 299 61 69 36 110 73 110 99 0 18
-23 25 -43 13z"/>
<path d="M437 11163 c-4 -3 -7 -13 -7 -21 0 -12 3 -12 15 -2 8 7 15 16 15 21
0 11 -14 12 -23 2z"/>
<path d="M2320 10996 c0 -22 3 -27 11 -19 8 8 8 16 0 30 -9 16 -10 14 -11 -11z"/>
<path d="M1960 8491 c0 -22 5 -43 10 -46 6 -4 10 12 10 39 0 25 -4 46 -10 46
-5 0 -10 -18 -10 -39z"/>
<path d="M1843 8255 c0 -22 2 -30 4 -17 2 12 2 30 0 40 -3 9 -5 -1 -4 -23z"/>
<path d="M1790 8261 c0 -12 5 -21 10 -21 6 0 10 6 10 14 0 8 -4 18 -10 21 -5
3 -10 -3 -10 -14z"/>
<path d="M1882 8260 c0 -14 2 -19 5 -12 2 6 2 18 0 25 -3 6 -5 1 -5 -13z"/>
<path d="M1982 10657 c-13 -16 -29 -117 -19 -117 9 0 39 108 35 121 -2 7 -8 6
-16 -4z"/>
<path d="M2033 10595 c0 -22 2 -30 4 -17 2 12 2 30 0 40 -3 9 -5 -1 -4 -23z"/>
<path d="M1762 10594 c4 -21 22 -23 26 -1 2 10 -3 17 -13 17 -10 0 -15 -6 -13
-16z"/>
<path d="M1682 10578 c-14 -19 -23 -99 -14 -132 14 -52 29 -41 25 16 -4 48 -3
51 10 30 17 -30 27 -18 27 33 0 54 -25 81 -48 53z"/>
<path d="M1980 10496 c0 -14 24 -66 30 -66 10 0 22 48 15 60 -6 9 -45 15 -45
6z"/>
<path d="M2052 10405 c0 -16 2 -22 5 -12 2 9 2 23 0 30 -3 6 -5 -1 -5 -18z"/>
<path d="M1960 10371 c0 -12 5 -21 10 -21 6 0 10 6 10 14 0 8 -4 18 -10 21 -5
3 -10 -3 -10 -14z"/>
<path d="M1625 10259 c-4 -6 -11 -58 -16 -115 -4 -58 -11 -114 -15 -126 -3
-11 0 -31 7 -44 11 -21 10 -26 -6 -38 -17 -12 -17 -14 1 -45 17 -29 18 -33 3
-41 -11 -6 -15 -18 -11 -35 3 -18 0 -25 -12 -25 -10 0 -16 -8 -16 -21 0 -35
33 -18 57 31 40 80 53 155 53 295 0 71 -3 140 -6 153 -7 23 -28 30 -39 11z"/>
<path d="M1570 9706 c-14 -37 -13 -69 2 -64 19 7 34 66 20 80 -8 8 -14 4 -22
-16z"/>
<path d="M2112 8995 c0 -16 2 -22 5 -12 2 9 2 23 0 30 -3 6 -5 -1 -5 -18z"/>
<path d="M1200 8451 c0 -12 5 -21 10 -21 6 0 10 6 10 14 0 8 -4 18 -10 21 -5
3 -10 -3 -10 -14z"/>
<path d="M1100 8161 c-40 -11 -53 -50 -40 -118 5 -32 19 -66 29 -76 10 -11 48
-27 85 -37 59 -17 68 -17 81 -4 24 24 19 110 -9 170 -30 65 -74 85 -146 65z"/>
<path d="M903 6915 c-23 -16 -86 -115 -98 -153 -5 -18 1 -32 29 -62 33 -36 36
-45 36 -99 0 -43 4 -60 15 -65 8 -3 18 -23 21 -45 8 -52 32 -72 96 -82 73 -12
152 5 178 38 28 35 25 56 -11 98 -30 34 -62 48 -142 60 -47 8 -44 20 14 60 56
40 82 85 82 143 0 37 -5 50 -27 69 -15 12 -38 23 -52 23 -13 0 -27 7 -30 15
-8 20 -82 20 -111 0z"/>
<path d="M1652 6750 c0 -19 2 -27 5 -17 2 9 2 25 0 35 -3 9 -5 1 -5 -18z"/>
<path d="M596 6652 c-3 -5 -23 -58 -45 -118 -22 -60 -51 -140 -66 -178 -14
-38 -23 -71 -20 -74 11 -12 135 276 148 346 6 29 -5 44 -17 24z"/>
<path d="M643 6452 c-13 -28 -33 -53 -47 -60 -33 -15 -46 -65 -46 -184 0 -143
26 -198 95 -198 31 0 65 -16 65 -32 0 -5 -9 -8 -20 -5 -10 3 -27 -1 -36 -8
-25 -18 -26 -167 -2 -216 9 -19 20 -47 23 -62 8 -38 46 -72 103 -93 85 -29 94
-34 99 -54 13 -51 33 3 33 90 0 30 -6 52 -15 60 -8 7 -22 37 -31 67 -14 50
-14 56 1 79 22 35 14 50 -41 75 -32 16 -55 36 -75 68 -33 51 -35 69 -13 130
18 54 13 95 -28 206 -16 44 -32 104 -36 133 l-7 53 -22 -49z"/>
<path d="M1800 6305 c0 -22 6 -38 15 -41 8 -4 15 -12 15 -20 0 -8 5 -14 10
-14 17 0 11 43 -10 78 -11 17 -22 32 -25 32 -3 0 -5 -16 -5 -35z"/>
<path d="M2890 6305 c0 -9 9 -15 21 -15 18 0 19 2 9 15 -7 8 -16 15 -21 15 -5
0 -9 -7 -9 -15z"/>
<path d="M447 6188 c-6 -45 6 -181 18 -210 12 -29 28 -21 21 10 -4 15 -9 75
-13 135 -6 112 -16 137 -26 65z"/>
<path d="M1588 6153 c0 -10 0 -30 1 -45 1 -17 -5 -31 -20 -42 -20 -13 -20 -17
-8 -32 11 -13 11 -18 2 -21 -7 -3 -13 -13 -13 -23 0 -9 -9 -46 -20 -80 -22
-67 -26 -125 -10 -135 5 -3 13 7 16 22 7 25 8 25 15 8 4 -11 8 -35 8 -53 1
-24 9 -41 31 -60 17 -15 30 -32 30 -39 0 -17 -6 -16 -35 3 -22 14 -25 14 -25
1 0 -20 75 -87 98 -87 43 0 122 81 122 126 0 50 18 13 50 -104 30 -113 47
-154 81 -202 22 -30 36 -100 21 -100 -6 0 -14 10 -18 23 -7 20 -8 19 -19 -13
l-12 -35 -18 55 c-25 77 -29 81 -36 30 -3 -31 -7 -39 -12 -27 -4 9 -10 25 -14
35 -5 13 -8 9 -11 -15 -2 -24 -8 -33 -22 -33 -10 0 -20 -7 -24 -15 -3 -8 -12
-12 -21 -9 -10 4 -15 0 -15 -10 0 -9 -9 -25 -20 -36 -19 -19 -19 -22 -4 -52
l16 -31 -26 5 c-31 6 -32 -5 -12 -99 7 -35 10 -63 6 -63 -3 0 -17 23 -30 50
l-24 50 -12 -35 c-6 -19 -17 -42 -24 -51 -11 -12 -10 -21 7 -52 11 -20 35 -77
53 -127 17 -49 46 -120 62 -157 28 -62 34 -68 67 -74 60 -10 61 -11 54 -46 -6
-30 -5 -32 10 -19 11 9 17 10 17 2 0 -6 14 -11 30 -11 18 0 33 -6 36 -15 4 -8
15 -15 25 -15 24 0 49 -48 56 -112 7 -57 -9 -61 -22 -6 l-7 33 -17 -50 c-12
-36 -21 -50 -34 -49 -21 2 -21 -11 -2 -65 13 -38 13 -42 -2 -48 -20 -8 -43 22
-43 56 0 39 -66 223 -83 233 -9 4 -29 30 -46 57 -49 80 -95 90 -128 28 -26
-47 -25 -187 1 -216 10 -11 23 -44 27 -73 12 -77 43 -104 115 -101 l56 2 -6
-47 c-3 -26 -2 -83 2 -127 5 -44 6 -89 2 -100 -6 -17 -10 -14 -28 22 -25 48
-59 77 -108 93 -46 15 -78 7 -92 -25 -18 -38 -15 -62 12 -108 14 -23 32 -72
41 -109 26 -101 34 -107 118 -93 58 9 68 2 36 -24 -25 -20 -23 -36 3 -26 21 8
38 49 38 89 0 42 17 62 59 71 l33 7 -8 -103 c-11 -129 -9 -264 4 -312 6 -21 6
-37 1 -37 -4 0 -47 36 -93 80 -47 44 -90 80 -96 80 -22 0 -69 -58 -75 -93 -10
-50 1 -87 24 -87 14 0 18 -5 14 -20 -3 -12 2 -29 13 -41 10 -11 20 -38 23 -61
8 -59 39 -78 139 -87 45 -4 86 -11 91 -16 11 -11 52 -198 82 -370 26 -153 24
-208 -11 -317 -41 -129 -52 -184 -44 -225 l7 -35 41 41 c23 23 47 41 52 41 6
0 14 -24 17 -52 4 -29 9 -64 12 -78 6 -21 3 -19 -17 10 l-23 35 -3 -65 c-2
-36 1 -94 7 -130 6 -36 16 -105 21 -154 6 -49 13 -93 15 -96 3 -4 11 -66 20
-139 8 -72 22 -150 30 -174 19 -53 19 -71 0 -87 -13 -11 -13 -16 1 -48 28 -65
28 -67 -4 -38 -39 36 -40 22 -5 -56 22 -49 24 -63 15 -79 -17 -27 -15 -56 7
-78 19 -19 19 -20 -2 -34 -21 -14 -21 -14 16 -64 36 -49 52 -92 25 -65 -18 18
-25 15 -32 -14 -5 -17 2 -44 19 -81 14 -30 25 -67 25 -81 0 -25 0 -25 -21 -6
-22 19 -22 19 -14 -6 10 -35 26 -52 42 -46 19 8 16 -3 -13 -42 -24 -31 -26
-37 -15 -72 6 -20 11 -53 11 -72 0 -32 -2 -35 -25 -30 -14 2 -25 8 -25 13 0 5
-8 9 -18 9 -10 0 -23 5 -30 12 -9 9 -12 6 -12 -16 0 -43 67 -106 113 -106 61
0 61 -4 54 368 -7 365 -20 574 -42 692 -24 123 -55 429 -55 536 0 144 16 271
50 402 39 151 42 275 8 342 -40 77 -84 84 -53 8 l17 -43 -26 24 c-25 24 -26
24 -26 4 0 -11 7 -34 15 -49 8 -16 15 -51 15 -79 l-1 -50 -19 35 c-23 43 -24
50 -5 50 20 0 19 12 -5 43 -27 35 -38 87 -17 87 28 0 37 59 13 79 -12 10 -13
8 -9 -11 6 -22 6 -23 -14 -5 -30 26 -63 121 -73 213 -5 43 -14 104 -19 133
-13 68 -26 281 -18 281 3 0 16 -18 28 -40 13 -22 26 -40 31 -40 12 0 11 4 -18
71 -38 93 -24 104 18 13 20 -43 40 -90 44 -104 6 -23 6 -24 -11 -10 -17 14
-18 13 -12 -30 l7 -45 -25 47 c-25 47 -45 69 -45 48 0 -6 21 -63 46 -126 49
-124 53 -160 8 -72 -34 66 -44 46 -14 -25 13 -29 23 -69 23 -90 0 -35 1 -36
17 -22 23 20 32 8 24 -32 -5 -26 1 -48 25 -98 57 -115 82 -64 40 79 -24 81
-23 159 6 356 14 99 16 168 11 493 -4 207 -5 377 -4 377 2 0 35 -7 73 -15 39
-8 102 -15 140 -15 99 0 184 -21 305 -75 97 -43 203 -105 216 -126 3 -5 14 -9
26 -9 11 0 33 -11 49 -24 16 -14 55 -32 86 -40 32 -9 87 -28 123 -41 78 -30
135 -40 345 -60 328 -32 545 -101 691 -221 38 -31 42 -38 46 -91 4 -46 20 -88
78 -207 43 -88 87 -161 107 -181 18 -17 33 -37 33 -43 0 -18 62 -64 72 -54 14
14 -7 49 -65 110 -37 37 -46 52 -34 52 10 0 31 6 46 14 26 14 30 13 63 -10 20
-14 52 -27 73 -28 27 -3 44 -11 60 -32 19 -24 25 -26 38 -16 17 15 29 52 17
52 -5 0 -13 -7 -18 -16 -6 -11 -12 -13 -16 -6 -3 6 7 25 24 42 39 40 41 101 5
179 -36 76 -166 205 -223 220 -23 7 -47 9 -54 5 -15 -10 -3 -124 22 -200 25
-75 24 -142 -4 -158 -14 -8 -20 -8 -23 2 -3 7 -27 38 -54 70 -27 31 -49 64
-49 72 0 8 -9 33 -21 55 -18 33 -19 44 -10 76 16 53 14 98 -9 164 -11 31 -26
94 -34 140 -8 45 -22 100 -32 121 -9 21 -18 58 -19 80 -1 24 -11 55 -23 72
-25 35 -28 52 -8 52 19 0 46 -27 46 -46 0 -12 10 -15 38 -13 25 2 36 -1 35 -9
-2 -8 10 -12 32 -12 28 0 35 -4 35 -19 0 -32 15 -32 57 -1 48 36 90 94 99 138
4 17 11 32 16 32 12 0 36 -59 49 -122 6 -29 17 -67 25 -85 8 -17 14 -47 14
-67 0 -43 20 -95 43 -115 20 -16 23 -55 5 -49 -7 3 -22 19 -33 38 -54 90 -192
207 -216 183 -6 -6 -11 -48 -11 -95 -1 -68 3 -93 19 -124 11 -21 32 -61 47
-89 15 -27 34 -56 43 -62 23 -18 106 -16 150 2 34 14 38 14 54 -2 9 -10 33
-63 54 -118 23 -60 50 -112 67 -129 27 -26 33 -28 85 -24 43 4 61 10 75 28 34
42 19 92 -53 184 -22 27 -39 56 -39 65 -3 160 -13 185 -120 310 -33 38 -60 73
-60 78 0 4 14 21 30 36 17 16 30 38 30 49 0 12 5 18 13 15 6 -3 20 -8 30 -12
31 -13 19 21 -28 73 -25 27 -56 53 -70 56 -19 5 -25 13 -25 33 0 25 0 26 20 8
29 -26 36 -11 11 24 -37 52 -158 131 -201 131 -15 0 -20 6 -20 24 0 13 -9 45
-20 71 -24 56 -26 78 -4 47 24 -34 33 -17 17 30 -14 43 -10 112 8 124 5 3 33
-16 62 -41 71 -65 130 -104 167 -111 17 -4 35 -15 41 -25 5 -11 21 -19 34 -19
31 0 36 -9 45 -83 6 -52 17 -76 65 -148 57 -84 103 -126 129 -116 8 3 17 -8
25 -29 7 -18 25 -42 40 -54 35 -24 54 -63 87 -177 14 -48 36 -104 50 -124 13
-19 24 -41 24 -48 0 -9 9 -11 30 -6 28 6 30 5 30 -25 0 -17 9 -53 21 -80 19
-44 19 -51 6 -64 -8 -9 -13 -27 -11 -43 4 -24 2 -23 -15 12 -11 23 -17 50 -14
65 3 17 -2 34 -14 49 l-19 24 4 -37 c4 -30 1 -37 -19 -45 -29 -10 -46 -5 -77
23 -37 33 -61 88 -82 191 -31 151 -77 217 -175 249 -47 15 -50 15 -68 -2 -26
-27 -33 -91 -13 -130 9 -17 16 -41 16 -54 0 -13 22 -48 50 -81 51 -60 54 -68
65 -149 8 -62 54 -150 85 -164 92 -43 148 -64 164 -61 11 1 22 -7 27 -22 8
-19 6 -22 -7 -17 -13 5 -15 1 -12 -19 3 -14 3 -25 0 -25 -3 0 -24 18 -48 40
-49 45 -77 52 -72 18 2 -15 -2 -22 -10 -20 -25 5 -8 -32 17 -38 15 -3 32 -20
44 -43 26 -51 15 -58 -14 -10 -34 55 -36 20 -4 -57 14 -34 23 -65 20 -68 -8
-9 -21 13 -46 78 -25 67 -47 102 -59 95 -10 -6 13 -77 54 -169 45 -99 23 -85
-33 22 -60 115 -79 137 -88 104 -3 -11 -15 -22 -27 -24 -18 -3 -21 -11 -24
-55 -3 -59 -18 -69 -33 -24 -11 31 -32 41 -91 41 -26 0 -41 -6 -52 -21 -9 -14
-21 -19 -31 -15 -26 10 -11 -37 33 -108 42 -67 39 -65 152 -101 l84 -27 28 33
c25 30 30 32 51 20 21 -11 27 -10 55 18 31 32 65 40 78 20 4 -7 13 -44 20 -83
8 -39 30 -103 51 -143 20 -40 34 -75 31 -79 -3 -3 -9 4 -13 16 -7 24 -32 22
-27 -2 1 -10 -8 -18 -24 -22 l-27 -7 35 -37 c62 -67 67 -78 20 -47 -45 29 -67
28 -39 -3 21 -23 21 -32 2 -32 -21 0 -19 -7 11 -43 26 -31 26 -31 5 -39 -20
-7 -21 -15 -21 -120 0 -105 -7 -157 -25 -201 -5 -12 -3 -17 6 -15 11 2 14 -14
14 -77 0 -44 -4 -90 -8 -103 -8 -22 -7 -22 12 -11 11 8 23 10 26 7 4 -3 9 -40
12 -82 l6 -75 -37 -41 c-37 -42 -47 -66 -21 -56 11 4 15 -1 15 -19 0 -35 -17
-39 -45 -11 -14 15 -27 26 -29 26 -2 0 0 -19 4 -42 10 -52 7 -58 -31 -58 -25
0 -33 -6 -42 -30 l-11 -30 -12 28 c-12 26 -12 25 -13 -20 -1 -51 -15 -64 -25
-23 -7 26 11 115 23 115 4 0 12 -5 19 -12 18 -18 27 -1 14 27 -14 30 -37 32
-54 5 -18 -28 -28 -25 -28 8 -1 26 -1 26 -16 7 -9 -13 -17 -16 -22 -9 -4 6
-15 13 -25 17 -16 6 -17 14 -11 54 3 27 18 75 31 108 24 56 25 68 21 200 -4
126 -7 146 -31 199 -15 32 -27 60 -27 62 0 2 46 4 103 4 56 0 107 4 114 8 37
24 44 141 12 205 -49 96 -157 197 -211 197 -24 0 -32 -6 -44 -37 -14 -31 -14
-46 -4 -93 7 -30 16 -93 20 -140 4 -47 11 -93 15 -102 5 -13 3 -18 -9 -18 -9
0 -16 7 -16 15 0 8 -6 15 -14 15 -15 0 -74 67 -95 107 -6 12 -11 35 -11 51 0
16 -6 35 -14 41 -12 10 -13 8 -9 -8 3 -12 1 -21 -6 -21 -12 0 -13 8 -15 109
-1 40 -6 66 -14 69 -8 2 -10 16 -6 44 7 39 5 41 -53 96 -63 59 -128 100 -140
88 -4 -4 7 -18 25 -32 21 -17 32 -34 32 -51 0 -15 12 -35 30 -51 19 -17 30
-36 30 -53 0 -14 9 -52 20 -84 11 -32 20 -74 20 -93 0 -48 38 -119 82 -154 41
-34 75 -103 112 -230 45 -155 44 -187 -14 -588 -17 -121 -98 -245 -344 -535
-133 -157 -355 -378 -420 -420 -55 -35 -106 -90 -106 -115 0 -11 -3 -11 -12
-2 -16 16 -91 15 -156 -2 -86 -23 -139 -60 -170 -119 -15 -28 -43 -68 -62 -88
-32 -33 -43 -38 -100 -44 -36 -3 -202 -2 -370 5 -714 26 -644 26 -669 1 -24
-24 -92 -31 -72 -7 9 11 8 15 -6 20 -31 12 -213 25 -355 26 -149 0 -168 3
-168 29 0 23 55 106 88 131 23 19 24 23 12 45 -7 14 -22 28 -33 31 -24 7 -40
-10 -69 -74 -20 -44 -87 -102 -118 -102 -9 0 -26 13 -38 29 -16 22 -35 32 -77
41 -55 11 -102 50 -89 72 3 5 47 9 98 8 135 -3 126 -6 126 41 0 23 13 70 30
109 17 38 30 78 30 90 0 11 8 35 17 53 14 28 17 76 21 347 2 178 0 354 -6 405
-6 54 -7 91 -1 93 14 6 11 28 -7 43 -14 11 -18 10 -30 -6 -17 -22 -19 -141 -4
-150 7 -4 8 -24 5 -49 -5 -32 -3 -47 9 -59 13 -12 14 -21 6 -43 -6 -15 -15
-125 -20 -245 -6 -165 -12 -224 -24 -247 -11 -22 -16 -58 -16 -121 0 -95 -2
-99 -83 -192 -9 -10 -46 -22 -88 -29 -94 -16 -165 -42 -219 -81 l-42 -31 -197
12 c-108 6 -198 14 -201 17 -8 8 50 53 69 53 10 0 21 9 24 19 2 11 19 27 36
35 28 15 31 15 31 0 0 -8 6 -14 13 -12 19 7 21 67 2 89 -12 12 -15 27 -11 44
8 31 5 31 -48 0 -24 -14 -45 -22 -49 -19 -3 4 -27 -26 -52 -66 -26 -39 -48
-70 -50 -68 -1 2 2 34 7 71 7 47 7 72 0 79 -17 17 -34 -2 -27 -29 13 -53 -37
-68 -114 -33 -24 11 -56 20 -72 20 -22 0 -29 5 -29 19 0 48 -20 24 -47 -57
-17 -48 -33 -96 -37 -107 -7 -19 -7 -19 7 -2 20 25 31 21 45 -15 11 -30 13
-31 30 -15 10 10 21 14 24 11 4 -3 18 2 33 12 l28 18 -16 -31 c-25 -48 -75
-59 -101 -21 -13 19 -19 20 -41 10 -28 -13 -89 -15 -147 -6 l-37 7 58 66 c32
36 77 94 99 127 46 68 94 104 139 104 23 0 40 -11 71 -45 36 -40 72 -59 72
-37 0 11 -28 52 -58 84 l-26 28 25 26 c13 15 39 33 57 40 34 15 44 44 14 44
-9 0 -44 -20 -76 -44 -35 -26 -87 -53 -127 -66 -37 -11 -73 -28 -80 -36 -7 -9
-38 -27 -68 -40 -38 -17 -81 -51 -142 -113 -101 -101 -111 -127 -52 -136 50
-8 60 -11 111 -29 44 -17 384 -76 434 -76 17 0 31 7 38 20 14 27 28 25 39 -4
10 -25 44 -36 116 -36 72 0 145 -19 177 -45 18 -15 42 -25 62 -25 20 0 40 -8
51 -20 26 -29 64 -38 230 -55 290 -30 373 -35 668 -44 235 -8 304 -13 329 -25
25 -13 34 -14 46 -3 11 9 69 12 221 11 213 -2 312 -13 341 -39 22 -20 30 -19
30 4 0 14 10 20 38 25 93 15 360 -2 405 -26 12 -6 57 -15 100 -19 43 -4 89
-15 102 -23 21 -14 24 -13 40 4 24 26 65 26 72 0 7 -25 19 -26 32 -2 8 14 24
17 86 17 46 0 79 -4 83 -11 10 -16 73 -31 165 -38 76 -7 77 -6 87 19 7 19 16
25 37 24 l28 0 -25 -11 -25 -10 25 -10 c14 -6 121 -13 239 -16 167 -4 240 -1
330 11 64 9 247 21 406 26 249 8 301 13 365 32 82 23 69 24 580 -12 131 -9
155 -8 251 11 58 11 144 22 190 25 46 2 98 8 114 14 30 9 30 9 -10 10 -23 1
-67 10 -100 22 -53 19 -72 20 -215 13 -138 -6 -161 -5 -193 11 -34 16 -37 21
-37 57 0 35 -2 39 -15 28 -29 -24 -28 -1 1 37 16 21 37 62 47 91 9 29 31 75
49 103 34 56 33 55 124 28 51 -15 89 -6 111 27 16 25 15 35 -6 192 -12 92 -26
193 -31 224 -10 63 -43 119 -105 178 -76 73 -131 164 -115 190 13 20 42 -7 35
-32 -8 -24 26 -79 94 -151 81 -85 85 -81 78 66 -4 67 -16 190 -27 272 -11 83
-25 195 -30 250 -24 233 -83 621 -98 645 -9 14 -15 37 -13 52 6 58 -50 119
-198 218 -84 56 -101 63 -161 70 -62 7 -118 26 -107 36 3 3 28 -1 56 -10 28
-8 51 -12 51 -8 0 4 -34 36 -75 71 -148 127 -180 202 -141 337 27 90 39 214
32 318 -13 207 -83 537 -141 664 -19 39 -30 72 -25 72 5 0 37 -24 71 -52 141
-121 234 -175 399 -233 179 -63 266 -111 345 -190 104 -103 145 -203 182 -440
19 -122 19 -158 5 -355 -11 -157 -33 -225 -94 -295 l-40 -45 32 7 c30 6 32 5
25 -18 -10 -31 -24 -49 -40 -49 -43 0 -11 -214 55 -365 l31 -70 -7 58 c-8 72
1 74 16 4 23 -112 84 -207 133 -207 10 0 27 -15 38 -35 16 -27 24 -32 37 -25
9 5 24 11 34 14 19 5 41 92 59 234 12 98 9 118 -17 86 -13 -15 -15 -16 -10 -2
2 9 8 44 12 76 5 47 11 61 25 65 33 9 54 99 25 110 -7 3 -16 28 -20 56 -5 36
-16 61 -41 91 -23 27 -35 52 -35 72 0 16 -9 42 -20 57 -17 25 -19 49 -23 272
-3 182 -8 264 -21 324 -21 97 -83 292 -96 300 -4 3 -16 29 -26 58 -9 28 -32
73 -51 99 -53 73 -193 200 -261 236 -34 18 -62 37 -62 42 0 5 -24 21 -52 35
-29 15 -89 51 -133 80 -44 30 -93 57 -110 61 -16 3 -41 17 -55 29 -14 12 -52
40 -85 62 -33 23 -75 57 -94 78 -38 42 -147 115 -226 151 -30 14 -57 34 -60
44 -7 21 -14 24 -52 20 -15 -1 -23 4 -23 14 0 50 -538 532 -617 552 -13 4 -23
12 -23 19 0 25 -50 52 -164 89 -63 20 -125 45 -139 56 -14 11 -32 20 -41 20
-8 0 -20 9 -26 20 -8 14 -17 19 -30 15 -12 -4 -36 6 -67 28 -26 19 -95 64
-153 100 -69 43 -122 85 -153 122 -59 68 -94 92 -109 77 -16 -16 19 -67 94
-138 83 -79 130 -114 175 -129 42 -15 50 -38 16 -43 -27 -4 -29 -27 -12 -149
12 -91 41 -147 98 -192 63 -50 91 -56 147 -31 52 23 114 66 114 80 0 4 -13 11
-30 15 -16 4 -33 11 -37 17 -4 7 0 9 10 5 22 -8 21 -8 -6 55 -17 38 -36 61
-65 81 -23 15 -42 34 -42 42 0 20 6 19 45 -11 44 -33 126 -64 170 -64 38 0 47
-14 14 -23 -19 -5 -20 -10 -14 -49 10 -61 41 -138 70 -178 14 -19 25 -42 25
-52 0 -30 -40 -124 -60 -143 -11 -10 -20 -26 -20 -37 0 -24 -7 -23 -73 7 -64
30 -151 43 -161 26 -11 -17 -35 -13 -63 9 -28 22 -94 27 -137 10 -28 -10 -27
-24 7 -74 19 -27 21 -28 34 -10 18 25 16 32 -9 36 -34 5 -34 28 0 28 31 0 42
-14 42 -54 0 -20 -30 -56 -47 -56 -4 0 -25 19 -46 43 l-38 42 4 -52 c2 -31 15
-74 31 -104 29 -56 28 -66 -2 -50 -12 6 -24 11 -27 11 -8 0 54 -87 74 -103 12
-10 13 -8 9 16 -5 26 5 37 17 17 3 -5 22 -10 41 -10 24 0 34 -4 34 -16 0 -11
-6 -14 -20 -9 -15 5 -20 2 -20 -10 0 -12 -6 -16 -20 -12 -26 7 -25 -9 5 -58
14 -22 25 -49 24 -60 0 -18 -1 -18 -11 3 -15 30 -34 22 -31 -13 2 -22 0 -26
-10 -16 -7 7 -13 32 -13 56 -1 25 -11 61 -25 86 -27 48 -51 64 -42 27 4 -16
-16 -1 -68 52 -41 41 -98 88 -126 103 -65 35 -129 40 -150 12 -35 -47 19 -160
86 -179 23 -7 31 -15 31 -31 0 -13 26 -54 61 -95 62 -74 70 -99 21 -63 -23 17
-41 21 -88 19 -57 -3 -59 -4 -62 -32 -2 -16 8 -51 22 -79 14 -27 23 -51 20
-54 -2 -3 -27 19 -54 49 -50 54 -55 54 -62 1 -3 -27 -28 -42 -28 -17 0 9 -5
16 -11 16 -6 0 -24 9 -41 21 -45 33 -48 11 -3 -28 49 -43 134 -83 178 -83 18
0 47 -9 65 -20 36 -22 76 -80 63 -93 -10 -10 -106 20 -122 39 -15 18 -43 18
-59 -1 -19 -23 -38 -18 -55 15 -30 57 -91 66 -97 14 -3 -27 -5 -25 -43 30
l-40 59 -3 -33 -3 -32 -30 28 c-37 36 -37 18 1 -47 17 -28 29 -53 27 -55 -2
-2 -25 21 -51 51 -48 56 -76 73 -56 34 20 -37 3 -31 -30 11 -25 32 -38 40 -55
36 -16 -4 -31 5 -60 34 -22 22 -56 52 -77 67 -21 14 -38 32 -38 40 0 7 -20 22
-45 33 -29 12 -49 29 -55 45 -12 33 -28 32 -36 -2 -13 -58 -16 -64 -30 -59
-17 6 -18 9 38 -78 42 -65 49 -89 17 -60 -17 15 -22 16 -29 4 -7 -12 -18 -7
-52 28 -53 51 -67 54 -39 7 11 -19 17 -35 12 -35 -22 0 -141 173 -141 206 0
16 11 26 40 38 51 20 68 53 50 96 -12 28 -11 33 9 51 18 17 20 24 10 35 -7 8
-20 12 -30 9 -20 -7 -26 9 -9 20 18 11 11 25 -12 25 -30 0 -44 10 -52 37 -8
26 -51 59 -96 75 -25 8 -34 7 -48 -5 -9 -8 -29 -17 -44 -21 -38 -9 -42 -35
-17 -107 18 -51 19 -66 10 -82 -11 -16 -8 -28 13 -71 l26 -51 -27 33 c-46 53
-59 40 -23 -25 l31 -58 -31 35 c-43 47 -140 219 -140 247 0 12 -9 27 -20 33
-14 8 -20 21 -20 47 0 35 -1 35 -19 19 -18 -16 -19 -15 -37 21 -13 26 -20 67
-22 131 -3 80 -1 97 17 128 12 19 21 45 21 58 0 33 35 63 54 47 12 -10 22 -10
49 0 31 11 38 10 63 -8 46 -33 153 -44 197 -22 12 6 32 21 44 32 20 18 21 22
9 51 -7 17 -32 61 -55 99 -46 75 -51 97 -21 97 11 0 27 12 37 26 32 49 -8 140
-111 251 -31 33 -71 66 -88 73 -18 7 -54 33 -79 57 -40 39 -47 42 -58 29 -17
-20 -31 -11 -31 20 0 13 -4 23 -9 21 -5 -1 -16 7 -24 17 -9 12 -20 17 -31 13
-23 -9 -15 -60 26 -175 33 -92 31 -123 -3 -46 -25 55 -70 127 -76 120 -2 -2 4
-21 15 -43 11 -21 23 -49 27 -63 7 -25 7 -25 -24 4 -37 36 -39 22 -7 -42 27
-53 43 -122 29 -122 -5 0 -19 19 -31 43 -13 23 -20 33 -16 22 12 -36 16 -219
6 -245 -10 -23 -11 -22 -12 15 -2 44 -9 70 -27 100 -20 34 -26 8 -9 -42 15
-45 15 -48 -3 -66 -18 -18 -18 -22 -3 -65 21 -62 5 -157 -33 -208 -15 -19 -31
-51 -36 -70 -6 -19 -16 -34 -24 -34 -18 0 -17 -3 -5 40 l9 35 -24 -27 c-13
-15 -29 -52 -35 -83 -16 -78 -51 -94 -73 -32 -9 26 -29 10 -21 -16 3 -12 23
-49 44 -82 41 -65 60 -113 41 -100 -7 4 -19 25 -28 47 -22 56 -37 35 -37 -56
-1 -78 -6 -85 -26 -36 -13 32 -30 40 -30 15 0 -8 -5 -24 -12 -34 -11 -18 -5
-54 19 -117 3 -8 0 -14 -6 -14 -6 0 -14 14 -19 32 -13 50 -35 49 -30 -2 3 -39
3 -41 -12 -22 -8 11 -20 28 -27 38 -10 16 -11 13 -6 -17 7 -46 -11 -58 -33
-24 -16 24 -18 25 -41 10 -14 -9 -31 -14 -39 -11 -19 7 -18 36 1 36 21 0 19
29 -2 36 -37 11 -47 22 -56 55 -15 63 -19 66 -32 29 l-13 -35 -10 27 c-18 45
-36 47 -29 3 4 -27 3 -35 -4 -28 -17 17 -59 141 -53 157 3 8 19 20 35 26 42
18 45 29 4 20 -39 -9 -45 -5 -45 25 0 13 -7 28 -14 35 -18 14 -51 98 -43 106
3 4 14 -11 24 -32 27 -57 89 -85 207 -93 57 -4 100 -11 110 -20 23 -19 32 -6
19 27 -16 38 -48 142 -78 247 -14 50 -31 107 -37 128 -13 46 -7 54 26 32 26
-17 26 -17 26 9 0 28 9 33 27 15 8 -8 20 -8 46 0 38 13 79 3 94 -23 4 -8 17
-14 28 -13 18 2 20 -3 17 -65 -2 -39 1 -69 7 -73 7 -4 11 4 11 19 0 34 26 59
49 46 30 -16 82 -81 79 -98 -2 -10 -13 -18 -26 -20 -17 -3 -22 2 -22 19 0 21
-1 21 -18 6 -10 -10 -24 -17 -30 -17 -16 0 -15 -30 3 -74 20 -47 35 -47 25 1
-10 41 -4 59 13 44 12 -9 40 -14 64 -12 22 2 33 36 23 70 -7 24 -6 31 6 31 9
0 14 11 14 29 0 17 5 33 10 36 19 11 10 52 -26 124 -26 52 -47 79 -78 101 -43
29 -56 47 -56 77 0 13 2 13 17 2 15 -13 16 -9 10 44 -6 60 -2 87 14 87 5 0 7
-11 3 -24 -3 -15 0 -33 9 -47 10 -13 13 -33 10 -55 -4 -26 -2 -35 11 -40 25
-9 36 7 51 70 13 54 13 55 -12 71 -37 25 -85 134 -85 194 1 60 -25 103 -125
207 -63 66 -72 72 -129 84 -93 19 -97 16 -73 -50 11 -30 27 -95 36 -145 15
-82 19 -93 55 -126 21 -20 38 -44 38 -53 0 -27 26 -30 100 -10 58 15 71 15 85
4 26 -22 15 -61 -24 -84 l-34 -20 6 39 c5 30 4 36 -6 26 -7 -7 -12 -38 -11
-76 0 -35 -3 -62 -8 -59 -4 3 -8 12 -8 20 0 8 -3 14 -8 14 -4 0 -6 -20 -4 -45
5 -60 -14 -59 -68 3 l-42 47 7 -50 6 -50 -21 33 c-12 17 -28 32 -36 32 -8 0
-14 8 -14 19 0 37 -87 117 -150 136 -44 14 -80 46 -104 93 -13 26 -38 64 -54
85 -17 21 -33 51 -37 66 -3 16 -22 47 -42 70 -29 34 -34 48 -31 76 3 24 0 35
-9 35 -7 0 -14 -8 -15 -17z m1101 -385 c16 -42 23 -88 13 -88 -5 0 -14 18 -21
41 -7 23 -15 47 -18 55 -3 8 0 14 6 14 6 0 15 -10 20 -22z m-422 -160 c-3 -7
-5 -2 -5 12 0 14 2 19 5 13 2 -7 2 -19 0 -25z m463 -68 c24 -48 26 -72 5 -63
-21 7 -45 55 -45 88 0 34 15 24 40 -25z m-91 -70 c1 -9 -8 -16 -19 -17 -18 -2
-20 4 -19 65 l1 67 18 -50 c10 -27 19 -57 19 -65z m-443 -87 c-12 -12 -41 12
-44 38 l-4 24 28 -27 c15 -15 25 -31 20 -35z m434 -20 c0 -20 -3 -24 -11 -16
-7 7 -9 19 -6 27 10 24 17 19 17 -11z m58 -11 c2 -7 -3 -12 -12 -12 -9 0 -16
7 -16 16 0 17 22 14 28 -4z m-78 -152 c0 -11 -4 -20 -10 -20 -5 0 -10 9 -10
20 0 11 5 20 10 20 6 0 10 -9 10 -20z m2567 -176 c29 -31 53 -61 53 -67 0 -13
40 -57 52 -57 5 0 2 10 -6 22 -14 20 -22 68 -12 68 43 0 66 -52 66 -148 0
-129 3 -138 97 -230 46 -46 98 -89 116 -97 18 -7 41 -23 51 -34 24 -27 36 -27
36 0 0 13 11 25 34 34 19 8 36 20 39 27 3 8 6 6 6 -5 1 -10 -4 -27 -9 -38 -10
-17 -7 -19 19 -19 29 0 52 -15 70 -48 7 -13 12 -14 24 -4 21 18 109 -40 101
-66 -4 -12 1 -10 15 7 12 13 21 31 22 40 0 9 6 -9 12 -39 10 -44 17 -57 37
-65 14 -5 76 -36 138 -67 63 -32 119 -58 125 -58 7 0 53 -23 102 -51 50 -28
110 -62 135 -76 73 -41 199 -134 260 -193 46 -44 69 -79 113 -170 112 -232
144 -370 157 -690 5 -124 13 -236 16 -249 4 -14 2 -26 -5 -31 -16 -10 -25
-144 -11 -170 17 -31 3 -42 -30 -25 -16 8 -31 15 -34 15 -2 0 -7 -18 -11 -40
-4 -22 -12 -43 -17 -46 -16 -10 -2 304 17 391 19 87 19 109 0 182 -8 31 -15
89 -15 129 0 39 -3 99 -6 133 -6 52 -9 58 -19 44 -11 -15 -12 -6 -8 50 5 56 3
67 -9 67 -17 0 -28 29 -28 76 0 28 -8 47 -68 157 -26 49 -226 197 -265 197
-11 0 -34 16 -52 36 -24 26 -44 37 -74 41 -31 4 -49 15 -80 49 -22 24 -47 44
-56 44 -26 0 -97 41 -127 72 -30 32 -53 29 -42 -5 l6 -22 -23 21 c-13 12 -32
24 -42 27 -9 4 -21 17 -27 31 -5 13 -28 38 -52 54 -24 16 -54 42 -67 56 -14
14 -30 26 -37 26 -7 0 -36 20 -65 45 -29 25 -58 45 -65 45 -7 0 -16 10 -20 22
-6 20 -7 20 -16 3 -6 -9 -8 -37 -4 -61 6 -50 43 -163 58 -182 8 -9 8 -20 0
-37 -10 -22 -9 -25 7 -25 29 0 51 -32 49 -73 -1 -21 4 -43 10 -49 16 -16 15
-28 -3 -28 -19 0 -35 -31 -32 -65 1 -15 -4 -30 -10 -32 -19 -7 -17 65 2 101 9
16 13 31 11 33 -10 10 -45 -9 -51 -28 -12 -36 -85 -14 -85 25 0 7 14 39 31 71
28 53 29 58 14 75 -9 10 -14 24 -10 29 4 7 -4 11 -20 11 -18 0 -25 4 -22 13
19 45 19 47 3 47 -9 0 -16 7 -16 15 0 8 -7 15 -16 15 -9 0 -37 18 -62 41 -62
54 -98 72 -149 73 -94 2 -113 -79 -53 -233 23 -60 46 -99 82 -138 60 -67 97
-143 68 -143 -5 0 -12 11 -16 25 -5 20 -11 24 -25 20 -23 -8 -84 28 -106 61
-9 14 -13 34 -9 48 7 29 -17 113 -55 188 -20 39 -45 70 -81 98 -29 22 -75 58
-103 80 -37 29 -59 40 -85 40 -19 0 -53 5 -75 11 l-39 11 27 14 c35 19 36 60
2 149 -25 67 -20 85 10 38 29 -44 97 -114 126 -129 38 -19 133 -18 153 2 57
56 -45 269 -156 325 -48 25 -40 37 27 41 l50 3 3 49 c3 38 -2 56 -23 87 -38
57 -9 48 52 -17z m-3453 -106 c19 -29 32 -108 19 -108 -6 0 -20 21 -32 48
l-21 47 6 -52 c3 -29 3 -53 0 -53 -3 0 -15 18 -26 40 -20 39 -26 81 -13 93 14
15 53 6 67 -15z m826 -3 c0 -8 -4 -17 -10 -20 -6 -4 -10 5 -10 20 0 15 4 24
10 20 6 -3 10 -12 10 -20z m-180 -24 c12 -24 13 -31 2 -31 -5 0 -14 11 -20 25
-14 29 2 34 18 6z m-37 -46 c4 -8 2 -17 -3 -20 -6 -4 -10 3 -10 14 0 25 6 27
13 6z m244 -113 c14 -29 23 -56 20 -59 -6 -5 -77 130 -77 144 1 15 32 -32 57
-85z m-98 -32 c0 -11 -3 -10 -14 4 -8 11 -15 31 -14 45 1 26 1 26 14 -4 8 -16
14 -37 14 -45z m2087 3 c4 -36 3 -53 -4 -53 -15 0 -35 76 -27 101 10 31 23 11
31 -48z m-2046 38 c5 -11 6 -22 1 -25 -4 -3 -13 6 -19 19 -14 30 2 34 18 6z
m-784 -41 c5 -26 4 -32 -4 -25 -7 6 -15 26 -18 45 -5 26 -4 32 4 25 7 -6 15
-26 18 -45z m2730 -31 c3 -6 2 -15 -4 -21 -7 -7 -14 -3 -21 11 -10 17 -9 21 3
21 8 0 18 -5 22 -11z m-20 -72 c9 -16 14 -31 11 -33 -5 -5 -57 68 -57 80 0 15
31 -17 46 -47z m-2522 -3 c11 -27 7 -37 -9 -24 -16 14 -20 40 -6 40 5 0 12 -7
15 -16z m246 -144 c0 -10 -4 -22 -10 -25 -6 -4 -10 7 -10 25 0 18 4 29 10 25
6 -3 10 -15 10 -25z m-115 -30 c7 -22 -14 -100 -27 -100 -9 0 -11 80 -2 104 8
22 21 20 29 -4z m316 -47 c12 -19 19 -36 16 -39 -5 -6 -67 79 -67 92 0 12 30
-18 51 -53z m638 -3 c50 -72 38 -81 -13 -11 -31 42 -44 71 -32 71 2 0 22 -27
45 -60z m-892 13 c-3 -10 -5 -4 -5 12 0 17 2 24 5 18 2 -7 2 -21 0 -30z m840
-111 c14 -24 23 -45 20 -48 -7 -8 -87 107 -87 125 0 19 27 -12 67 -77z m1470
0 c61 -104 76 -132 68 -132 -7 0 -87 124 -114 178 -38 75 -8 45 46 -46z m-131
53 c-26 -19 -42 -19 -26 0 7 8 20 15 29 15 13 -1 13 -3 -3 -15z m-1286 -36 c0
-12 -27 -11 -35 1 -11 17 5 32 21 19 8 -6 14 -15 14 -20z m1130 -4 c7 -8 22
-15 34 -15 23 0 65 -38 85 -77 21 -41 10 -38 -35 12 -34 38 -44 44 -41 28 3
-13 1 -23 -3 -23 -8 0 -47 47 -64 78 -10 17 9 15 24 -3z m-36 -46 c10 -17 16
-33 13 -35 -5 -5 -47 49 -47 60 0 16 18 3 34 -25z m254 -6 c4 -41 -8 -42 -31
-4 -22 38 -22 43 6 39 17 -2 23 -11 25 -35z m-1288 -32 c-1 -13 -3 -13 -15 3
-19 26 -19 42 0 26 8 -7 15 -20 15 -29z m-17 -63 c20 -28 35 -53 32 -56 -5 -5
-38 33 -68 80 -32 49 -4 30 36 -24z m1271 36 c11 -28 6 -39 -9 -20 -8 11 -15
23 -15 28 0 14 18 9 24 -8z m-120 -74 c-7 -7 -44 39 -44 54 1 6 12 -2 25 -19
13 -16 22 -32 19 -35z m-2078 15 c9 -13 14 -30 11 -37 -3 -8 -10 -2 -17 15
-14 28 -25 34 -35 17 -11 -18 -23 -11 -18 10 7 28 39 25 59 -5z m-86 -36 c0
-12 -27 -11 -35 1 -11 17 5 32 21 19 8 -6 14 -15 14 -20z m2822 -1 c-13 -13
-32 -2 -32 18 0 12 4 13 21 3 14 -7 18 -14 11 -21z m-2738 -57 c-7 -7 -34 28
-34 43 1 6 10 0 21 -13 11 -13 17 -27 13 -30z m1556 -26 c-1 -5 -12 3 -25 18
-14 15 -25 33 -25 40 1 7 12 -1 25 -18 14 -16 25 -34 25 -40z m420 -18 c0 -7
-12 1 -25 16 -14 15 -25 33 -25 40 0 7 12 -1 25 -16 14 -15 25 -33 25 -40z
m-1988 -23 c35 -62 37 -86 5 -56 -13 12 -27 19 -30 15 -4 -3 -7 11 -7 33 -1
32 -3 36 -11 21 -15 -26 -30 -10 -17 19 15 33 28 27 60 -32z m1428 -87 c0 -6
-13 2 -30 18 -16 16 -30 30 -30 33 0 2 14 -6 30 -18 17 -12 30 -26 30 -33z
m-1450 -17 c26 0 30 -9 46 -108 7 -48 17 -100 20 -117 6 -25 4 -28 -8 -17 -8
6 -17 10 -20 7 -3 -3 -8 16 -11 43 -3 26 -19 83 -36 125 -30 76 -41 120 -20
85 5 -10 19 -18 29 -18z m3470 -42 c0 -14 -18 -9 -24 8 -11 28 -6 39 9 20 8
-11 15 -23 15 -28z m-3495 -60 c25 -53 32 -121 16 -147 -15 -24 -26 9 -26 81
0 41 -5 72 -13 80 -10 10 -14 8 -18 -10 -9 -32 -26 -27 -18 6 14 59 28 57 59
-10z m3534 -33 c0 -20 0 -20 -14 -1 -8 11 -15 29 -15 40 0 20 0 20 15 0 8 -10
14 -28 14 -39z m-3520 -215 c27 -69 52 -136 55 -150 6 -23 6 -24 -7 -7 -17 20
-112 258 -121 302 l-6 30 15 -25 c8 -14 37 -81 64 -150z m3640 29 c87 -129 94
-166 19 -92 -36 35 -63 53 -83 55 -26 3 -30 7 -33 38 -3 31 15 117 23 108 1
-1 35 -51 74 -109z m-3712 -26 c-5 -50 -12 -73 -20 -62 -1 2 -1 32 1 67 2 39
8 60 14 56 6 -4 8 -28 5 -61z m112 -3 c0 -11 -3 -10 -14 4 -8 11 -15 29 -15
40 1 19 2 19 15 -4 8 -14 14 -32 14 -40z m3269 -33 c16 -18 26 -67 14 -67 -5
0 -12 7 -16 15 -3 8 -14 15 -25 15 -18 0 -19 3 -9 25 13 28 21 31 36 12z m462
-52 c16 -19 3 -40 -16 -24 -15 13 -19 39 -5 39 5 0 14 -7 21 -15z m-454 -65
c32 -48 27 -59 -15 -34 -31 19 -36 29 -25 58 9 22 10 21 40 -24z m214 -204
c15 -15 12 -59 -5 -82 -15 -19 -16 -19 -13 1 2 14 -3 20 -17 20 -15 0 -19 -6
-18 -23 3 -19 0 -21 -16 -13 -22 12 -81 78 -81 91 0 5 17 29 39 53 21 25 42
58 45 73 7 25 9 22 31 -41 13 -37 29 -73 35 -79z m-501 -57 c15 -44 14 -48 -9
-42 -23 6 -23 6 -9 -36 13 -36 17 -38 35 -14 18 25 30 8 16 -22 -14 -30 -47
-33 -62 -6 -11 22 -14 134 -3 144 13 13 21 7 32 -24z m-149 -4 c34 -18 40 -29
10 -20 -12 4 -28 1 -36 -6 -19 -15 -28 -6 -19 20 8 25 8 25 45 6z m80 -87 c0
-30 -25 -15 -28 17 -3 25 -2 27 12 16 9 -8 16 -22 16 -33z m840 0 c10 -18 17
-35 14 -38 -7 -6 -54 47 -54 61 0 20 21 8 40 -23z m-80 -103 c20 -24 5 -28
-21 -6 -19 16 -20 20 -8 21 9 0 22 -7 29 -15z m-57 -78 c16 -10 26 -21 23 -24
-6 -7 -86 38 -86 49 0 10 29 -1 63 -25z m85 3 c18 -11 30 -25 27 -30 -8 -12
-33 0 -59 29 -24 27 -11 27 32 1z m-138 -25 c47 -24 71 -45 52 -45 -13 0 -101
50 -107 61 -9 14 2 11 55 -16z m13 -59 c73 -33 116 -66 66 -51 -50 16 -168 84
-147 85 4 0 40 -15 81 -34z m431 -32 c9 -3 16 -10 16 -15 0 -14 -26 -10 -40 6
-13 16 -3 20 24 9z m59 -76 c23 -11 37 -23 30 -25 -11 -4 -93 33 -93 42 0 10
22 4 63 -17z m132 0 c7 -8 1 -9 -25 -4 -19 3 -39 11 -45 18 -7 8 -1 9 25 4 19
-3 39 -11 45 -18z m-580 -18 c8 -13 -1 -13 -26 0 -10 6 -19 15 -19 21 0 11 35
-5 45 -21z m-161 -34 c39 -30 94 -66 123 -80 28 -14 54 -30 58 -36 3 -6 25
-20 47 -31 56 -29 187 -162 225 -229 40 -72 187 -213 239 -230 88 -28 249
-127 233 -144 -3 -3 -39 15 -80 41 -82 51 -158 87 -166 79 -3 -3 18 -47 45
-99 98 -181 121 -295 143 -705 15 -280 10 -370 -24 -421 -14 -20 -39 -65 -56
-99 -17 -34 -36 -62 -41 -62 -5 0 -35 7 -67 15 -103 27 -176 18 -197 -24 -8
-14 -64 -79 -125 -145 -104 -110 -126 -146 -101 -161 6 -3 10 -10 10 -14 0 -4
-154 -11 -342 -14 -347 -7 -1029 -41 -1126 -56 -49 -7 -56 -6 -82 15 -15 13
-32 24 -37 24 -25 0 -111 53 -116 71 -4 15 -11 18 -30 14 -17 -5 -26 -2 -30 9
-4 9 -18 16 -34 16 -14 0 -45 9 -68 20 -68 33 -118 99 -53 69 22 -9 29 -8 51
15 30 30 78 34 142 11 22 -8 41 -15 41 -15 1 0 5 11 8 25 10 39 36 32 36 -10
0 -19 5 -35 11 -35 8 0 9 22 5 73 l-7 72 33 31 c48 44 114 94 126 94 5 0 36
33 67 73 74 92 136 157 151 157 6 0 25 21 42 48 53 79 93 127 105 125 7 -2 20
16 29 38 25 59 42 46 50 -37 3 -38 9 -96 12 -129 8 -80 -10 -60 -28 31 -8 38
-15 59 -15 47 -1 -22 -21 -44 -21 -24 0 6 -5 11 -11 11 -8 0 -10 -26 -6 -87 5
-72 4 -83 -5 -60 -13 29 -28 36 -28 12 0 -8 -9 -19 -20 -25 -11 -6 -20 -16
-20 -22 0 -6 -11 -26 -25 -44 -14 -18 -31 -59 -38 -90 -9 -40 -15 -52 -20 -41
-9 25 -39 7 -61 -35 -10 -18 -28 -48 -42 -67 -13 -19 -24 -45 -24 -58 0 -16
-7 -27 -20 -30 -13 -4 -20 -14 -20 -30 0 -38 -26 -79 -67 -104 -40 -25 -83
-66 -83 -80 0 -5 11 -16 25 -25 43 -28 81 -6 166 99 42 50 84 106 94 122 11
17 33 47 49 68 24 31 29 46 28 88 -1 50 -1 51 19 33 19 -17 20 -17 34 2 9 10
18 32 21 47 7 28 68 87 92 87 7 0 15 13 18 29 5 22 10 27 25 24 14 -4 23 3 33
29 8 19 12 45 9 56 -4 18 -1 22 20 22 26 0 104 74 174 165 21 28 81 91 133
140 52 50 155 149 230 221 74 71 156 147 183 168 44 35 47 40 47 85 0 35 -8
59 -29 93 -16 25 -34 49 -40 52 -6 4 -11 15 -11 24 0 9 -12 33 -26 53 -42 62
-104 335 -104 462 0 70 27 247 37 247 3 0 38 -24 77 -54z m771 2 c14 -6 25
-15 25 -20 0 -11 -7 -10 -40 7 -47 24 -34 36 15 13z m529 -11 c6 -9 7 -19 3
-23 -9 -9 -37 15 -37 33 0 18 20 12 34 -10z m236 -56 c-1 -13 -3 -13 -15 3
-19 26 -19 42 0 26 8 -7 15 -20 15 -29z m-719 0 l24 -19 -28 -11 c-39 -15 -60
-14 -83 5 -18 14 -16 15 25 9 45 -6 45 -6 26 15 -15 17 -16 20 -3 20 9 0 26
-9 39 -19z m-4267 -22 c9 -48 7 -119 -4 -119 -19 0 -37 100 -24 134 10 25 21
19 28 -15z m4731 -40 c4 -16 2 -30 -4 -33 -6 -4 -11 1 -11 11 0 10 -3 29 -6
43 -5 17 -4 22 4 15 6 -5 14 -22 17 -36z m-84 -12 c-8 -8 -11 -3 -11 19 1 25
2 27 11 11 8 -14 8 -22 0 -30z m-306 6 c18 -12 18 -13 2 -13 -23 0 -57 18 -57
30 0 11 26 3 55 -17z m525 -24 c0 -16 -4 -29 -10 -29 -12 0 -24 45 -15 60 11
18 25 1 25 -31z m-980 21 c11 -7 7 -10 -17 -10 -17 0 -35 5 -38 10 -8 13 35
13 55 0z m85 -32 c14 -6 25 -15 25 -19 0 -10 -58 10 -66 22 -7 12 10 11 41 -3z
m1012 -30 c-3 -7 -5 -2 -5 12 0 14 2 19 5 13 2 -7 2 -19 0 -25z m-238 -92 c1
-19 -3 -26 -8 -20 -9 9 -15 46 -11 74 2 24 18 -20 19 -54z m-694 -10 c39 -20
59 -34 45 -30 -32 8 -190 81 -190 88 0 9 73 -20 145 -58z m813 -6 c25 0 25 -7
-1 -70 -10 -24 -10 -24 -19 15 -5 22 -13 44 -18 49 -6 6 -10 15 -10 20 0 6 5
5 12 -2 7 -7 23 -12 36 -12z m-812 -44 c84 -28 174 -73 174 -86 0 -5 -46 10
-102 34 -172 72 -209 99 -72 52z m424 -114 c-11 -4 -90 49 -111 74 -8 9 16 -3
53 -27 37 -24 63 -45 58 -47z m-1149 6 c35 -133 52 -182 89 -261 22 -48 40
-99 40 -114 0 -25 -65 -133 -81 -133 -4 0 -15 20 -24 44 -16 41 -16 45 3 80
24 44 17 90 -28 181 -32 64 -47 151 -36 209 9 48 23 45 37 -6z m1097 -17 c46
-34 56 -47 42 -56 -5 -3 -10 -15 -10 -26 0 -20 -1 -20 -40 2 -46 26 -76 56
-66 66 3 4 20 -3 36 -15 48 -36 57 -25 15 18 -46 47 -35 52 23 11z m-222 -42
c8 -14 -29 -10 -48 5 -10 7 -18 16 -18 19 0 8 59 -13 66 -24z m781 -16 c-3
-10 -5 -4 -5 12 0 17 2 24 5 18 2 -7 2 -21 0 -30z m-787 -38 c16 -19 0 -19
-26 0 -16 12 -16 14 -3 15 9 0 22 -7 29 -15z m111 5 c25 -14 25 -30 -1 -23
-24 6 -49 33 -31 33 7 0 21 -5 32 -10z m619 -20 c0 -11 -4 -20 -10 -20 -5 0
-10 9 -10 20 0 11 5 20 10 20 6 0 10 -9 10 -20z m-490 -15 c17 -20 -9 -21 -36
0 -19 14 -19 14 2 15 12 0 27 -7 34 -15z m-109 -36 c16 -11 36 -18 44 -15 8 3
15 1 15 -4 0 -6 15 -27 33 -47 18 -21 39 -47 47 -57 13 -18 13 -19 0 -11 -23
13 -144 112 -165 134 -23 27 -11 27 26 0z m134 -179 c16 -16 24 -30 18 -30 -7
0 -21 14 -33 30 -12 17 -20 30 -18 30 3 0 17 -13 33 -30z m-63 -57 c41 -43 10
-33 -38 12 -43 41 -45 44 -16 28 18 -10 43 -28 54 -40z m68 -8 c13 -14 19 -25
13 -25 -5 0 -20 11 -33 25 -13 14 -19 25 -13 25 5 0 20 -11 33 -25z m-1191
-179 c1 -15 -2 -16 -14 -6 -10 9 -15 30 -14 69 l1 56 13 -50 c7 -27 14 -58 14
-69z m-284 -46 c3 -30 9 -63 11 -72 3 -10 1 -18 -5 -18 -5 0 -11 10 -14 23 -3
19 -5 18 -12 -10 -15 -63 -25 -40 -41 86 -8 65 9 64 22 -1 l8 -43 4 60 c4 70
16 58 27 -25z m-92 -5 c4 -8 2 -17 -3 -20 -6 -4 -10 3 -10 14 0 25 6 27 13 6z
m297 -6 c0 -11 -4 -17 -10 -14 -5 3 -10 13 -10 21 0 8 5 14 10 14 6 0 10 -9
10 -21z m-40 -39 c0 -16 -4 -30 -10 -30 -5 0 -10 14 -10 30 0 17 5 30 10 30 6
0 10 -13 10 -30z m-48 -64 c-9 -18 -11 -16 -11 19 0 33 1 37 10 21 8 -12 8
-25 1 -40z m-182 14 c0 -10 -4 -22 -10 -25 -6 -4 -10 7 -10 25 0 18 4 29 10
25 6 -3 10 -15 10 -25z m1555 -38 c-7 -7 -45 28 -57 53 -7 12 3 7 26 -14 19
-19 34 -37 31 -39z m-1615 -43 c-5 -46 -10 -91 -11 -99 -1 -14 -27 111 -28
138 -1 6 5 12 13 12 8 0 18 9 21 21 13 39 15 12 5 -72z m197 29 c-2 -13 -4 -5
-4 17 -1 22 1 32 4 23 2 -10 2 -28 0 -40z m-164 -38 c3 -11 1 -23 -4 -26 -5
-3 -9 6 -9 20 0 31 6 34 13 6z m-123 -10 c0 -11 -4 -20 -10 -20 -5 0 -10 9
-10 20 0 11 5 20 10 20 6 0 10 -9 10 -20z m1830 -64 c0 -13 -38 23 -63 59 -17
26 -15 25 21 -10 23 -21 42 -43 42 -49z m-1766 -99 c15 -11 15 -15 2 -32 -22
-31 -31 -11 -33 78 -1 80 -1 80 6 24 5 -35 15 -63 25 -70z m146 103 c0 -11 -4
-20 -10 -20 -5 0 -10 9 -10 20 0 11 5 20 10 20 6 0 10 -9 10 -20z m-218 -60
c-2 -22 2 -54 9 -71 8 -21 9 -33 2 -37 -6 -4 -20 -23 -32 -42 l-21 -35 0 55
c1 62 16 138 32 157 14 18 14 18 10 -27z m174 -5 c-5 -18 -13 -25 -32 -25
l-25 0 28 35 c29 36 40 32 29 -10z m1606 -150 c12 -17 -6 -4 -41 30 -34 33
-72 74 -83 90 -12 17 6 4 41 -30 34 -33 72 -73 83 -90z m38 21 c0 -13 -69 53
-82 79 -6 11 10 0 36 -25 25 -24 46 -49 46 -54z m40 -157 c0 -17 -18 -9 -35
17 l-16 25 25 -16 c14 -10 26 -21 26 -26z m-32 -31 c60 -66 50 -288 -14 -288
-9 0 -34 16 -57 35 -61 53 -83 47 -107 -30 -19 -59 -53 -123 -98 -183 -35 -46
-40 -59 -35 -90 4 -29 2 -34 -7 -22 -10 13 -13 13 -23 -4 -27 -41 -46 -61 -53
-54 -4 5 0 16 8 25 18 21 33 63 22 63 -4 0 -19 -10 -32 -22 l-24 -23 7 25 c7
24 6 24 -27 -7 -37 -36 -48 -40 -48 -19 0 12 -5 12 -32 -2 -45 -22 -218 -31
-218 -11 0 21 76 156 123 219 22 30 56 66 76 78 34 23 36 23 48 5 12 -15 11
-20 -12 -36 -29 -22 -31 -38 -8 -78 16 -27 16 -31 -1 -81 -9 -29 -20 -59 -23
-67 -4 -9 -1 -11 7 -6 7 4 21 28 32 54 11 25 27 54 36 64 29 33 32 17 7 -33
-14 -27 -25 -57 -25 -67 1 -11 9 -4 21 19 20 39 43 49 53 23 15 -41 94 13 83
57 -7 28 -48 54 -99 63 -28 5 -38 12 -38 27 0 25 44 68 69 68 24 0 61 45 61
75 0 12 9 30 20 40 12 10 30 34 41 52 23 37 43 41 72 16 18 -17 20 -17 43 10
13 16 24 40 24 55 0 42 12 55 35 38 13 -9 18 -25 17 -50 -1 -20 3 -36 8 -36 6
0 10 24 10 53 0 74 18 87 58 45z m-2028 -113 c0 -14 -4 -25 -10 -25 -5 0 -10
11 -10 25 0 14 5 25 10 25 6 0 10 -11 10 -25z m-4131 -115 c-37 -70 -79 -110
-116 -110 -23 0 -24 2 -12 18 24 32 153 161 157 157 2 -2 -11 -31 -29 -65z
m5469 -211 c-61 -116 -119 -160 -168 -129 -18 11 -13 17 115 148 104 107 118
102 53 -19z m-5078 42 c-10 -21 -30 -37 -30 -26 0 14 21 45 31 45 6 0 6 -7 -1
-19z m620 -3 c0 -19 -129 -150 -143 -145 -25 8 -17 43 20 81 60 62 123 95 123
64z m64 -54 c20 -20 21 -83 1 -111 -29 -41 -115 -38 -115 4 0 23 47 100 68
112 23 14 28 13 46 -5z m2199 -20 c10 -10 -20 -73 -60 -125 -34 -45 -60 -65
-70 -55 -7 7 54 120 82 155 27 31 36 36 48 25z m107 -72 c17 -14 24 -34 30
-92 5 -41 7 -77 5 -79 -10 -10 -93 -11 -117 -2 -22 8 -28 17 -28 39 0 37 26
111 47 134 20 23 35 23 63 0z m-2264 -60 c-14 -14 -16 -14 -16 -1 0 20 23 44
29 28 2 -6 -4 -18 -13 -27z m454 -2 c0 -5 -16 -10 -35 -10 -19 0 -35 5 -35 10
0 6 16 10 35 10 19 0 35 -4 35 -10z m610 0 c0 -5 -16 -10 -35 -10 -19 0 -35 5
-35 10 0 6 16 10 35 10 19 0 35 -4 35 -10z m155 -20 c4 -6 -5 -10 -20 -10 -15
0 -24 4 -20 10 3 6 12 10 20 10 8 0 17 -4 20 -10z m590 0 c4 -6 -7 -10 -25
-10 -18 0 -29 4 -25 10 3 6 15 10 25 10 10 0 22 -4 25 -10z m-215 -15 c10 -13
9 -15 -9 -15 -12 0 -21 6 -21 15 0 8 4 15 9 15 5 0 14 -7 21 -15z m-1300 -5
c11 -7 6 -10 -20 -10 -26 0 -31 3 -20 10 8 5 17 10 20 10 3 0 12 -5 20 -10z
m125 0 c4 -6 -5 -10 -20 -10 -15 0 -24 4 -20 10 3 6 12 10 20 10 8 0 17 -4 20
-10z m154 -1 c29 -10 43 -29 21 -29 -23 0 -100 25 -100 32 0 11 42 10 79 -3z
m141 1 c11 -7 6 -10 -20 -10 -26 0 -31 3 -20 10 8 5 17 10 20 10 3 0 12 -5 20
-10z m353 -5 c2 -12 -38 -19 -61 -10 -14 5 -14 7 -2 16 18 11 60 8 63 -6z
m3162 5 c14 -6 -4 -9 -55 -9 -51 0 -69 3 -55 9 11 5 36 9 55 9 19 0 44 -4 55
-9z m-3077 -27 c-10 -2 -26 -2 -35 0 -10 3 -2 5 17 5 19 0 27 -2 18 -5z m2640
0 c-10 -2 -28 -2 -40 0 -13 2 -5 4 17 4 22 1 32 -1 23 -4z m710 0 c-10 -2 -26
-2 -35 0 -10 3 -2 5 17 5 19 0 27 -2 18 -5z m640 -20 c-10 -2 -26 -2 -35 0
-10 3 -2 5 17 5 19 0 27 -2 18 -5z m-573 -14 c88 -5 165 -15 170 -21 7 -7 -9
-9 -55 -4 -139 13 -677 19 -684 8 -4 -7 2 -13 16 -16 13 -3 32 -7 43 -9 11 -3
-31 -5 -92 -6 -114 -1 -142 9 -86 30 22 8 24 12 13 19 -21 13 475 13 675 -1z
m-1452 -6 c-7 -2 -21 -2 -30 0 -10 3 -4 5 12 5 17 0 24 -2 18 -5z m280 0 c-7
-2 -19 -2 -25 0 -7 3 -2 5 12 5 14 0 19 -2 13 -5z m413 -4 c10 -17 -12 -26
-84 -33 -37 -3 -77 -9 -89 -12 -39 -11 -25 13 20 35 46 23 141 29 153 10z
m-238 -26 c5 -18 -10 -16 -34 2 -18 15 -18 15 5 13 14 -2 26 -9 29 -15z m1365
10 c-13 -2 -35 -2 -50 0 -16 2 -5 4 22 4 28 0 40 -2 28 -4z m120 0 c-7 -2 -21
-2 -30 0 -10 3 -4 5 12 5 17 0 24 -2 18 -5z m-2323 -43 c0 -5 -9 -10 -20 -10
-11 0 -20 5 -20 10 0 6 9 10 20 10 11 0 20 -4 20 -10z m330 0 c0 -5 -11 -10
-25 -10 -14 0 -25 5 -25 10 0 6 11 10 25 10 14 0 25 -4 25 -10z m248 3 c-21
-2 -55 -2 -75 0 -21 2 -4 4 37 4 41 0 58 -2 38 -4z"/>
<path d="M6690 833 c0 -14 41 -76 46 -70 7 6 -22 63 -36 72 -5 3 -10 3 -10 -2z"/>
<path d="M6613 695 c-3 -9 -3 -18 0 -21 9 -9 27 6 27 22 0 19 -19 18 -27 -1z"/>
<path d="M2350 6093 c0 -6 11 -31 25 -54 32 -56 32 -71 0 -36 -45 48 -59 32
-24 -27 18 -31 19 -36 5 -36 -20 0 -20 -5 4 -75 20 -58 20 -58 0 -40 -19 18
-20 17 -20 -3 0 -27 38 -130 51 -138 7 -4 8 11 4 42 l-6 49 17 -30 c24 -43 45
-65 62 -65 13 0 13 2 0 18 -18 20 -40 83 -33 90 3 3 11 0 17 -6 7 -7 16 -12
20 -12 16 0 8 26 -25 80 -52 86 -53 100 -7 55 l41 -40 -20 53 c-32 81 -67 145
-90 166 -12 11 -21 14 -21 9z"/>
<path d="M490 5913 c0 -30 12 -63 22 -63 14 0 5 73 -9 78 -7 2 -13 -4 -13 -15z"/>
<path d="M532 5813 c-11 -22 -5 -43 13 -43 8 0 16 -17 20 -42 4 -24 25 -100
46 -170 20 -69 45 -166 54 -214 37 -200 116 -391 209 -506 67 -83 93 -154 75
-201 -18 -47 -25 -524 -9 -592 9 -38 10 -65 2 -100 -12 -58 -8 -73 25 -81 35
-9 48 8 30 37 -10 16 -18 65 -22 149 l-7 125 37 -35 c21 -19 48 -57 61 -85 13
-27 44 -74 69 -103 25 -29 45 -59 45 -68 0 -25 -30 -28 -54 -5 -13 13 -35 21
-56 21 l-33 0 6 -65 c3 -36 15 -100 26 -142 11 -43 23 -95 26 -116 6 -39 57
-107 80 -107 7 0 19 7 26 16 37 45 115 30 144 -27 19 -35 19 -45 2 -30 -8 6
-17 8 -20 4 -4 -3 -7 -89 -7 -190 0 -196 6 -225 52 -257 13 -9 30 -44 44 -88
28 -86 26 -78 14 -78 -5 0 -12 12 -16 28 -7 30 -45 92 -56 92 -5 0 1 -24 12
-52 24 -63 24 -62 5 -54 -12 4 -15 -3 -15 -29 0 -39 5 -42 32 -18 17 15 18 14
18 -15 0 -20 -7 -36 -21 -45 -13 -9 -16 -17 -10 -22 17 -10 13 -37 -9 -65
l-20 -25 0 31 c0 33 -51 140 -108 230 -44 68 -51 114 -23 150 11 15 21 35 21
45 0 17 -9 19 -83 19 -79 0 -85 1 -112 30 -22 23 -26 33 -17 42 7 7 12 31 12
55 0 33 4 43 16 43 12 0 15 6 10 23 -24 85 -61 440 -52 496 7 44 -7 72 -26 53
-17 -17 -31 -914 -17 -1077 13 -148 37 -289 60 -350 28 -72 59 -235 66 -345 4
-58 11 -98 18 -102 7 -4 10 -19 7 -33 -3 -18 0 -25 12 -25 29 0 24 99 -19 377
-25 163 -37 220 -55 248 -31 50 -60 163 -66 260 l-5 80 32 -58 c18 -32 44 -64
58 -72 40 -20 58 -45 91 -125 17 -41 38 -82 47 -92 20 -22 56 -23 88 -2 23 15
25 15 31 0 3 -8 0 -35 -8 -58 -10 -34 -18 -43 -36 -42 -27 1 -27 2 2 -49 23
-38 70 -187 61 -187 -3 0 -17 24 -32 53 -39 75 -41 37 -4 -75 16 -51 33 -109
36 -128 l6 -35 -21 38 c-11 20 -25 37 -30 37 -16 0 -11 -31 15 -95 26 -64 31
-100 15 -110 -6 -3 -10 -31 -10 -61 0 -54 0 -54 28 -48 24 7 26 6 13 -9 -7
-10 -19 -17 -27 -17 -10 0 -13 -40 -16 -181 -3 -179 -3 -180 -28 -199 l-25
-20 26 0 c42 0 53 -22 28 -54 -21 -26 -21 -28 -5 -93 9 -36 15 -67 13 -70 -3
-2 -14 11 -26 29 -24 39 -27 22 -6 -46 20 -65 20 -82 0 -66 -20 17 -20 -1 5
-120 11 -52 20 -115 20 -139 0 -25 6 -52 15 -61 25 -28 29 -75 8 -96 -10 -11
-25 -32 -33 -48 -8 -16 -30 -39 -47 -50 -18 -12 -33 -23 -33 -26 0 -12 66 -8
87 5 50 33 67 201 43 435 -7 62 -7 106 -2 113 5 7 12 50 15 97 3 47 11 128 16
180 19 180 31 516 30 825 0 262 3 332 20 455 12 80 25 230 31 333 6 104 15
197 20 207 6 10 10 65 10 122 0 57 3 113 6 125 7 26 24 21 24 -8 0 -24 17 -25
25 0 7 24 -10 70 -30 77 -23 9 -18 36 17 78 37 45 48 94 37 170 -10 79 -52
163 -109 221 -53 54 -95 135 -106 204 l-7 43 43 -31 c58 -42 110 -43 151 -2
22 22 29 39 29 67 0 49 -33 116 -76 154 -40 35 -151 93 -157 82 -2 -4 -10 -31
-17 -60 -11 -47 -10 -55 5 -72 17 -19 34 -100 20 -100 -4 0 -14 8 -22 18 -13
16 -14 16 -9 -3 2 -11 8 -45 11 -75 6 -48 19 -89 50 -162 5 -13 3 -18 -9 -18
-9 0 -16 7 -16 15 0 20 -19 19 -27 -2 -4 -9 1 -93 11 -187 9 -94 19 -193 21
-220 2 -26 9 -54 15 -61 11 -13 4 -45 -10 -45 -10 0 -50 63 -50 79 0 8 8 10
20 6 18 -6 19 -4 9 22 -6 15 -16 55 -23 87 -9 43 -17 60 -30 62 -10 1 -24 11
-31 21 -28 37 -67 128 -69 156 -1 26 5 33 46 54 26 13 53 33 59 44 16 31 1
143 -25 182 -30 44 -131 123 -196 153 -30 14 -62 29 -70 33 -18 10 -26 115
-11 146 6 11 12 42 13 70 3 47 5 50 37 59 23 7 39 6 52 -2 10 -7 27 -12 38
-12 21 0 66 -47 76 -80 4 -12 1 -28 -6 -37 -11 -13 -10 -17 6 -29 48 -36 58
48 21 181 -15 54 -20 60 -44 61 -15 0 -49 10 -77 21 -27 12 -70 27 -95 34 -29
9 -49 22 -57 39 -7 14 -16 25 -20 25 -59 2 -223 304 -223 410 0 17 -6 51 -14
76 -8 24 -36 123 -61 219 -50 186 -72 247 -98 268 -13 11 -17 10 -25 -5z m481
-1519 c-4 -56 -12 -86 -23 -79 -11 7 -14 84 -4 110 12 29 29 9 27 -31z m366
-1898 c0 -26 -2 -28 -8 -11 -4 11 -11 34 -15 50 -6 28 -5 29 9 11 8 -11 15
-34 14 -50z m-18 -1193 c-9 -15 -10 -12 -10 17 0 29 1 32 10 18 7 -12 7 -24 0
-35z"/>
<path d="M940 5616 c0 -51 4 -88 11 -92 6 -4 9 -19 5 -35 -5 -26 -3 -28 12
-21 9 5 23 7 30 5 7 -3 12 3 12 14 0 15 -25 117 -46 191 -13 46 -24 19 -24
-62z"/>
<path d="M2110 5682 c0 -18 43 -102 52 -102 10 0 -14 61 -37 92 -8 13 -15 17
-15 10z"/>
<path d="M3060 5640 c-23 -23 -26 -70 -9 -167 15 -83 41 -114 141 -164 152
-76 262 -67 203 18 -8 12 -20 45 -26 75 -15 68 -34 105 -58 113 -11 3 -50 28
-87 55 -37 28 -75 50 -84 50 -13 0 -17 6 -13 20 4 16 0 20 -21 20 -14 0 -35
-9 -46 -20z"/>
<path d="M3636 5561 c-9 -10 -20 -36 -23 -57 -3 -22 -10 -47 -15 -57 -24 -46
114 -194 208 -224 60 -18 110 -12 142 18 12 11 22 24 22 28 0 16 -100 161
-142 208 -50 54 -123 103 -153 103 -12 0 -30 -8 -39 -19z"/>
<path d="M4004 5559 c-31 -35 -23 -105 24 -203 22 -46 56 -102 76 -124 31 -34
45 -42 102 -52 61 -12 67 -11 86 7 11 11 22 38 25 59 4 35 -3 51 -62 149 -78
128 -98 153 -142 171 -47 20 -87 17 -109 -7z"/>
<path d="M2490 5528 c0 -17 18 -44 24 -37 8 7 -5 49 -15 49 -5 0 -9 -6 -9 -12z"/>
<path d="M912 5410 c4 -45 34 -51 74 -16 35 29 25 45 -18 28 -27 -10 -33 -9
-45 6 -12 15 -13 13 -11 -18z"/>
<path d="M1880 5376 c0 -9 7 -16 16 -16 17 0 14 22 -4 28 -7 2 -12 -3 -12 -12z"/>
<path d="M786 5373 c-11 -11 -6 -137 8 -203 21 -99 54 -176 90 -215 28 -29 40
-35 75 -35 84 0 102 34 76 145 -21 92 -73 215 -91 215 -8 0 -22 16 -30 35 -8
20 -25 39 -37 44 -36 13 -84 21 -91 14z"/>
<path d="M2167 5253 c-11 -10 -8 -41 4 -48 13 -9 16 -6 24 28 5 20 3 27 -7 27
-8 0 -18 -3 -21 -7z"/>
<path d="M1020 5205 c0 -15 34 -85 41 -85 12 0 12 3 -7 50 -9 22 -20 40 -25
40 -5 0 -9 -2 -9 -5z"/>
<path d="M2287 5193 c-4 -3 -7 -16 -7 -27 1 -21 1 -21 15 -2 8 11 15 23 15 28
0 10 -14 11 -23 1z"/>
<path d="M4034 5174 c-3 -11 -20 -48 -36 -83 -37 -77 -31 -94 35 -101 34 -4
51 -12 67 -32 26 -34 153 -98 194 -98 37 0 86 44 86 76 0 31 -61 116 -112 154
-46 34 -146 82 -201 95 -21 6 -28 3 -33 -11z"/>
<path d="M2210 5115 c0 -14 32 -66 37 -61 8 7 -17 66 -28 66 -5 0 -9 -2 -9 -5z"/>
<path d="M3365 5093 c-39 -39 16 -224 88 -296 37 -37 38 -39 21 -58 -16 -18
-17 -28 -7 -109 19 -149 43 -179 149 -188 72 -5 114 3 114 22 0 7 -27 57 -61
110 -34 54 -59 99 -57 100 1 1 34 8 72 15 100 18 106 22 106 82 0 65 -15 91
-91 165 -79 75 -169 136 -206 139 -15 1 -45 9 -65 18 -46 21 -43 21 -63 0z
m55 -28 c16 -19 0 -19 -26 0 -16 12 -16 14 -3 15 9 0 22 -7 29 -15z"/>
<path d="M2965 5046 c-17 -12 -18 -17 -6 -57 23 -78 80 -190 111 -219 21 -20
53 -34 106 -46 69 -16 78 -17 102 -3 22 13 26 21 24 50 -1 18 -14 57 -27 86
-26 57 -119 163 -142 163 -8 0 -26 9 -40 20 -30 24 -100 27 -128 6z"/>
<path d="M1456 5008 c3 -13 10 -30 15 -38 7 -12 8 -10 9 7 0 28 -10 53 -22 53
-5 0 -6 -10 -2 -22z"/>
<path d="M1530 4946 c0 -14 5 -28 10 -31 6 -3 10 5 10 19 0 14 -4 28 -10 31
-6 3 -10 -5 -10 -19z"/>
<path d="M1450 4870 c0 -6 14 -47 31 -90 43 -112 30 -122 -22 -17 -43 87 -65
112 -53 60 14 -57 77 -219 91 -233 13 -13 14 -13 9 7 -6 19 -3 22 21 20 25 -2
28 1 26 28 -3 34 -84 235 -95 235 -5 0 -8 -5 -8 -10z"/>
<path d="M1532 4805 c25 -85 57 -160 64 -152 12 12 -8 105 -34 157 -39 78 -55
75 -30 -5z"/>
<path d="M1587 4828 c11 -55 41 -118 58 -118 21 0 19 11 -14 85 -32 70 -55 87
-44 33z"/>
<path d="M1812 4768 c3 -7 13 -15 22 -16 12 -3 17 1 14 10 -3 7 -13 15 -22 16
-12 3 -17 -1 -14 -10z"/>
<path d="M1383 4728 c3 -13 11 -37 18 -55 15 -38 5 -55 -16 -27 -8 10 -15 14
-15 7 0 -20 19 -63 29 -63 12 0 33 62 27 81 -2 8 -7 26 -10 40 -3 15 -13 30
-22 33 -13 5 -15 1 -11 -16z"/>
<path d="M1301 4663 c-15 -29 -14 -33 5 -33 13 0 15 -7 10 -31 -5 -26 -4 -29
8 -20 8 6 18 10 22 9 5 -2 10 0 12 5 6 18 0 34 -22 61 -23 30 -23 30 -35 9z"/>
<path d="M2112 4650 c0 -14 2 -19 5 -12 2 6 2 18 0 25 -3 6 -5 1 -5 -13z"/>
<path d="M1072 4588 c-16 -16 -15 -28 3 -28 8 0 15 9 15 20 0 23 -2 24 -18 8z"/>
<path d="M2780 4563 c0 -5 6 -18 14 -29 17 -22 35 -11 20 13 -12 19 -34 29
-34 16z"/>
<path d="M1254 4409 c10 -65 28 -75 24 -15 -2 31 -8 51 -17 54 -11 4 -13 -4
-7 -39z"/>
<path d="M3990 4411 c0 -5 7 -14 15 -21 16 -14 18 -10 9 14 -6 17 -24 22 -24
7z"/>
<path d="M3352 4368 c3 -7 13 -15 22 -16 12 -3 17 1 14 10 -3 7 -13 15 -22 16
-12 3 -17 -1 -14 -10z"/>
<path d="M3124 4309 c-3 -6 1 -18 10 -27 15 -15 18 -15 27 -2 8 12 16 7 48
-30 41 -47 69 -49 34 -2 -22 31 -79 72 -99 72 -7 0 -16 -5 -20 -11z"/>
<path d="M1560 3882 c0 -12 7 -25 15 -29 27 -10 30 6 7 30 l-22 21 0 -22z"/>
<path d="M5326 3601 c-4 -6 -1 -21 6 -33 l13 -23 3 24 c4 26 -12 49 -22 32z"/>
<path d="M1567 3284 c-14 -14 -7 -35 11 -32 9 2 17 10 17 17 0 16 -18 25 -28
15z"/>
<path d="M1593 3145 c-3 -9 -3 -18 0 -21 9 -9 27 6 27 22 0 19 -19 18 -27 -1z"/>
<path d="M1603 3065 c-3 -9 -3 -18 0 -21 9 -9 27 6 27 22 0 19 -19 18 -27 -1z"/>
<path d="M4818 2979 c-21 -12 -24 -39 -4 -39 7 0 19 7 26 15 17 21 1 37 -22
24z"/>
<path d="M1605 2951 c-13 -62 47 -312 92 -379 l18 -27 3 24 c2 13 -6 46 -19
72 -18 39 -20 51 -10 63 10 12 10 20 0 38 -7 13 -22 70 -33 127 -21 107 -39
135 -51 82z"/>
<path d="M2080 2899 c0 -9 9 -27 20 -40 15 -19 19 -20 20 -8 0 9 -9 27 -20 40
-15 19 -19 20 -20 8z"/>
<path d="M1730 2491 c0 -28 53 -172 71 -193 l20 -23 -6 40 c-4 22 -22 73 -40
113 -31 67 -45 86 -45 63z"/>
<path d="M1800 2223 c0 -57 73 -384 84 -373 25 25 -8 292 -46 376 -15 33 -38
31 -38 -3z"/>
<path d="M1980 2133 c0 -5 7 -18 15 -29 15 -18 15 -18 13 5 -3 23 -28 44 -28
24z"/>
<path d="M5257 1985 c-20 -14 -37 -32 -37 -40 0 -21 11 -19 50 10 69 51 57 77
-13 30z"/>
<path d="M5143 1865 c-15 -13 -23 -25 -17 -25 6 0 21 11 34 25 30 32 19 32
-17 0z"/>
<path d="M1126 1873 c-10 -10 -7 -81 4 -88 6 -3 10 -26 10 -51 0 -38 3 -45 18
-42 13 3 17 13 15 48 -2 49 -22 128 -33 135 -4 2 -10 2 -14 -2z"/>
<path d="M1908 1823 c-16 -27 -23 -65 -20 -110 2 -19 8 -23 33 -23 29 0 31 2
23 28 -5 15 -9 51 -9 80 0 28 -2 52 -5 52 -3 0 -13 -12 -22 -27z"/>
<path d="M5192 1806 c-26 -25 -44 -47 -41 -51 4 -3 31 17 60 44 30 28 48 50
41 51 -7 0 -34 -20 -60 -44z"/>
<path d="M1132 1647 c-9 -10 -8 -18 2 -32 13 -18 14 -18 21 4 9 28 -7 48 -23
28z"/>
<path d="M5230 1610 c0 -19 3 -21 12 -12 9 9 9 15 0 24 -9 9 -12 7 -12 -12z"/>
<path d="M1114 1566 c-4 -9 -3 -29 0 -44 9 -35 9 -39 -3 -92 -6 -25 -10 -79
-11 -120 0 -42 -11 -129 -25 -195 -14 -66 -25 -132 -25 -147 0 -17 -8 -31 -20
-38 -19 -10 -29 -60 -12 -60 11 1 62 76 62 93 0 7 7 27 15 43 36 72 68 561 38
571 -7 3 -16 -3 -19 -11z"/>
<path d="M3408 73 c12 -2 32 -2 45 0 12 2 2 4 -23 4 -25 0 -35 -2 -22 -4z"/>
<path d="M3567 69 c8 -8 16 -8 30 0 16 9 14 10 -11 11 -22 0 -27 -3 -19 -11z"/>
<path d="M4195 30 c-3 -5 3 -10 14 -10 12 0 21 5 21 10 0 6 -6 10 -14 10 -8 0
-18 -4 -21 -10z"/>
</g>
</svg>
